<svg width="196" height="81" viewBox="0 0 196 81" fill="none" xmlns="http://www.w3.org/2000/svg">
<mask id="mask0_56_873" style="mask-type:alpha" maskUnits="userSpaceOnUse" x="8" y="18" width="180" height="45">
<rect x="8" y="18" width="180" height="44.7133" fill="#D9D9D9"/>
</mask>
<g mask="url(#mask0_56_873)">
<path d="M80.5848 47.6775C80.5848 47.3138 80.336 47.0443 79.8293 46.9391V46.7036C80.1102 46.7036 81.0456 46.7398 81.3093 46.7398C81.5386 46.7398 82.443 46.7036 82.725 46.7036V46.9391C82.5292 46.9512 82.3456 47.0344 82.212 47.1717C82.0783 47.309 82.0047 47.49 82.0063 47.6775V52.2972C82.0063 53.7597 82.8466 54.5868 84.6051 54.5868C86.1206 54.5868 87.299 53.9371 87.299 52.4056V47.6589C87.299 47.316 87.0697 47.0432 86.5057 46.9391V46.7036C86.7121 46.7036 87.4859 46.7398 87.7495 46.7398C87.9788 46.7398 88.7812 46.7036 88.9945 46.7036V46.9391C88.4465 47.064 88.2035 47.2985 88.2035 47.6589V52.1504C88.2035 54.1661 86.9757 55.3273 84.3276 55.3273C81.8618 55.3251 80.5848 54.2548 80.5848 52.3607V47.6775Z" fill="white"/>
<path d="M91.1628 54.9617C91.736 54.8598 91.9653 54.5815 91.9653 54.2419V47.8563C91.9781 47.6324 91.9006 47.4123 91.7488 47.2413C91.5969 47.0704 91.3823 46.9615 91.149 46.9372V46.7017C91.4402 46.7225 91.9286 46.7345 92.1808 46.7345C92.4533 46.738 92.7258 46.727 92.997 46.7017L98.7872 53.2187V47.6635C98.7872 47.3217 98.558 47.0489 97.9939 46.9427V46.7071C98.2014 46.7071 98.9477 46.7444 99.2125 46.7444C99.4418 46.7444 100.244 46.7071 100.453 46.7071V46.9427C99.9003 47.0676 99.6332 47.3031 99.6332 47.6635V55.3319H99.2802C98.7784 55.1311 98.3427 54.8044 98.0192 54.3865L92.8308 48.6177V54.2452C92.8308 54.587 93.0371 54.8587 93.6034 54.9649V55.2016C93.3959 55.2016 92.6496 55.1643 92.3848 55.1643C92.1556 55.1643 91.3737 55.2016 91.1628 55.2016V54.9617Z" fill="white"/>
<path d="M136.895 53.2394H137.14C137.255 53.7092 137.545 54.1229 137.956 54.4028C138.437 54.6827 138.991 54.8266 139.554 54.818C140.72 54.818 141.46 54.2703 141.46 53.3939C141.46 52.489 140.513 52.0201 139.379 51.4778C138.535 51.0747 136.878 50.4076 136.878 48.8772C136.878 47.453 138.016 46.5635 139.836 46.5635C141.038 46.5635 141.602 46.8439 142.413 46.8078L142.397 48.5386H142.15C141.98 48.0873 141.654 47.7049 141.226 47.4547C140.798 47.2045 140.293 47.1015 139.795 47.1627C138.609 47.1627 138.164 47.8112 138.164 48.4707C138.164 49.415 139.131 49.8949 140.227 50.3583C141.46 50.883 142.797 51.5458 142.797 53.0203C142.797 54.4171 141.651 55.4304 139.565 55.4304C138.672 55.3767 137.786 55.2372 136.922 55.0141L136.895 53.2394Z" fill="white"/>
<path d="M161.804 51.6848L159.443 48.0697C159.208 47.5744 158.797 47.1746 158.283 46.9413V46.7069C158.606 46.7069 159.48 46.7441 159.727 46.7441C159.957 46.7441 160.894 46.7069 161.235 46.7069V46.9413C160.933 46.9928 160.791 47.1363 160.791 47.3543C160.825 47.5915 160.919 47.8171 161.065 48.0116L162.812 50.7613L164.488 48.0051C164.642 47.7859 164.741 47.5359 164.777 47.2744C164.777 47.11 164.656 46.9742 164.37 46.938V46.7036C164.655 46.7036 165.251 46.7409 165.441 46.7409C165.631 46.7409 166.316 46.7036 166.598 46.7036V46.9227C165.967 47.2326 165.461 47.7334 165.16 48.3468L163.008 51.7692L161.804 51.6848ZM163.155 51.3375V54.2274C163.168 54.4147 163.25 54.5916 163.386 54.7265C163.523 54.8615 163.705 54.9459 163.9 54.9647V55.2013C163.613 55.2013 162.674 55.163 162.401 55.163C162.172 55.163 161.272 55.2013 160.946 55.2013V54.9647C161.144 54.9466 161.329 54.8629 161.469 54.7283C161.609 54.5937 161.695 54.4165 161.713 54.2274V51.4624" fill="white"/>
<path d="M117.953 46.7041H123.486C123.704 46.7091 123.921 46.6787 124.128 46.6143H124.376L124.337 48.3331H124.091C124.022 48.0171 123.826 47.7392 123.547 47.5576C123.267 47.3761 122.925 47.3049 122.592 47.3592H120.185V50.3543H122.041C122.29 50.3573 122.539 50.339 122.785 50.2995C122.957 50.2763 123.116 50.2009 123.24 50.0843C123.364 49.9677 123.445 49.8162 123.472 49.6521H123.72C123.703 49.9106 123.703 50.5022 123.703 50.6763C123.703 50.8505 123.72 51.4739 123.72 51.7554H123.463C123.428 51.5901 123.345 51.4375 123.224 51.3154C123.102 51.1933 122.946 51.1066 122.775 51.0652C122.532 51.0199 122.285 50.9979 122.037 50.9995H120.189V54.5138H122.803C123.184 54.5629 123.572 54.4793 123.894 54.2782C124.216 54.0771 124.453 53.7719 124.559 53.4184L124.803 53.4731L124.559 55.2358C123.787 55.1739 123.012 55.1498 122.238 55.1635H119.476C119.21 55.1635 118.233 55.2007 117.95 55.2007V54.9652C118.449 54.8743 118.74 54.6365 118.74 54.183V47.6867C118.74 47.2836 118.511 47.0294 117.954 46.9429L117.953 46.7041Z" fill="white"/>
<path d="M103.82 47.7327C103.82 47.2945 103.549 47.0568 103.018 46.9472V46.7139C103.315 46.7139 104.279 46.75 104.555 46.75C104.784 46.75 105.777 46.7139 106.078 46.7139V46.9472C105.547 47.0568 105.269 47.2759 105.269 47.7327V54.1829C105.269 54.6211 105.542 54.8556 106.078 54.9629V55.1984C105.778 55.1984 104.831 55.1612 104.555 55.1612C104.317 55.1612 103.315 55.1984 103.017 55.1984V54.964C103.561 54.8665 103.819 54.6354 103.819 54.184L103.82 47.7327Z" fill="white"/>
<path d="M145.799 47.7327C145.799 47.2945 145.524 47.0568 144.997 46.9472V46.7139C145.293 46.7139 146.258 46.75 146.533 46.75C146.769 46.75 147.756 46.7139 148.056 46.7139V46.9472C147.527 47.0568 147.254 47.2759 147.254 47.7327V54.1829C147.254 54.6211 147.527 54.8556 148.056 54.9629V55.1984C147.758 55.1984 146.812 55.1612 146.533 55.1612C146.303 55.1612 145.293 55.1984 144.997 55.1984V54.964C145.54 54.8665 145.799 54.6354 145.799 54.184V47.7327Z" fill="white"/>
<path d="M153.491 46.7392C150.458 46.7392 149.972 46.6856 149.352 46.6483V48.4011H149.599C149.639 48.1169 149.793 47.8585 150.028 47.6802C150.263 47.5019 150.561 47.4175 150.86 47.4447H152.763V54.182C152.763 54.6377 152.502 54.8656 151.961 54.962V55.1986C152.26 55.1986 153.271 55.1614 153.505 55.1614C153.783 55.1614 154.733 55.1986 155.028 55.1986V54.9631C154.492 54.8535 154.226 54.618 154.226 54.1831V47.4414H156.114C156.414 47.4138 156.713 47.4979 156.949 47.6761C157.185 47.8543 157.34 48.1129 157.382 48.3978H157.626V46.645C157.009 46.6823 156.524 46.7359 153.49 46.7359" fill="white"/>
<path d="M129.285 54.1821C129.285 54.6203 129.575 54.8537 130.11 54.9621V55.1988C129.813 55.1988 128.844 55.1615 128.566 55.1615C128.329 55.1615 127.381 55.1988 127.083 55.1988V54.9621C127.579 54.8712 127.872 54.6335 127.872 54.1821V47.6651C127.872 47.2641 127.642 47.0078 127.084 46.9212V46.6868C127.381 46.6868 128.319 46.7229 128.585 46.7229C129.019 46.7229 130.253 46.6528 130.739 46.6528C132.865 46.6528 134.049 47.4931 134.049 48.9336C134.049 50.0664 133.168 50.8321 131.81 51.1443C132.042 51.2851 132.251 51.4587 132.428 51.6592C132.803 52.0821 133.815 53.4701 134.236 53.9598C134.657 54.4494 135.192 54.9906 135.768 55.0147V55.2042C135.42 55.2723 135.067 55.309 134.712 55.3138C134.35 55.3193 133.992 55.2411 133.668 55.0858C133.345 54.9306 133.065 54.7028 132.854 54.4221C132.369 53.859 131.547 52.689 131.063 52.0985C130.901 51.8863 130.696 51.7079 130.459 51.5741C130.223 51.4404 129.96 51.3542 129.687 51.3207C129.554 51.2988 129.429 51.2813 129.279 51.2638L129.285 54.1821ZM129.285 50.7193C129.654 50.7588 130.025 50.7767 130.396 50.773C132.06 50.773 132.584 49.8582 132.584 49.0487C132.584 47.9028 131.782 47.1929 130.327 47.1929C129.978 47.1962 129.629 47.2266 129.285 47.2838V50.7193Z" fill="white"/>
<path d="M108.207 47.7577C108.125 47.5527 107.991 47.3705 107.816 47.2277C107.642 47.085 107.433 46.9862 107.208 46.9405V46.7017C107.523 46.7017 108.617 46.74 108.857 46.74C109.078 46.74 110.033 46.7017 110.357 46.7017V46.9339C110.069 46.9865 109.74 47.1388 109.74 47.4203C109.803 47.7689 109.929 48.1043 110.112 48.4117L112.405 53.3929L114.571 48.4041C114.726 48.1036 114.825 47.7802 114.866 47.4477C114.866 47.187 114.611 47.0095 114.253 46.9339V46.7017C114.54 46.7017 115.246 46.74 115.467 46.74C115.667 46.74 116.498 46.7017 116.812 46.7017V46.9405C116.535 47.0122 116.282 47.1505 116.076 47.3422C115.871 47.534 115.72 47.7728 115.638 48.036L112.447 55.2257H111.725L108.207 47.7577Z" fill="white"/>
<path d="M116.388 25.0858C116.232 24.6979 115.977 24.3533 115.647 24.0831C115.316 23.8128 114.921 23.6255 114.495 23.5379V23.0854C115.091 23.0854 117.072 23.1534 117.526 23.1534C117.946 23.1534 119.864 23.0854 120.475 23.0854V23.5236C119.933 23.6244 119.31 23.9136 119.31 24.4482C119.43 25.1088 119.667 25.7452 120.009 26.3303L124.354 35.7701L128.466 26.3084C128.756 25.7413 128.945 25.1319 129.025 24.5052C129.025 24.0024 128.539 23.6617 127.857 23.5258V23.0876C128.401 23.0876 129.724 23.1556 130.144 23.1556C130.526 23.1556 132.093 23.0876 132.694 23.0876V23.5149C132.167 23.6562 131.686 23.9237 131.297 24.2919C130.908 24.6601 130.624 25.1169 130.471 25.6193L124.43 39.245H123.054L116.388 25.0858Z" fill="white"/>
<path d="M57.8826 38.7259C58.6713 38.5539 59.2272 38.2111 59.2272 37.3566V24.8625C59.2272 24.042 58.7114 23.7013 57.8826 23.4953V23.0571C58.2975 23.0571 60.0824 23.124 60.5192 23.124C61.0201 23.124 62.891 23.0571 63.3025 23.0571V23.4953C62.5139 23.6662 61.9269 24.008 61.9269 24.8625V30.0847H71.6709V24.8658C71.6709 24.0124 71.1517 23.6706 70.3286 23.4986V23.0604C70.7401 23.0604 72.5777 23.1272 73.0798 23.1272C73.5109 23.1272 75.3381 23.0604 75.7451 23.0604V23.4986C74.9564 23.6695 74.3695 24.0113 74.3695 24.8658V37.3599C74.3695 38.1804 74.9186 38.5244 75.7451 38.7292V39.1378C75.3381 39.1378 73.5109 39.1039 73.0798 39.1039C72.58 39.1039 70.7424 39.1378 70.3286 39.1378V38.7292C71.1115 38.5572 71.6709 38.2143 71.6709 37.3599V31.4552H61.9269V37.3599C61.9269 38.2143 62.4749 38.5244 63.3025 38.7292V39.1378C62.891 39.1378 61.0201 39.1039 60.5192 39.1039C60.0847 39.1039 58.2998 39.1378 57.8826 39.1378V38.7259Z" fill="white"/>
<path d="M170.544 38.7255C171.556 38.5535 172.113 38.1701 172.113 37.2882V24.8621C172.113 24.0054 171.564 23.6669 170.587 23.4949V23.0567C171.15 23.0567 172.982 23.1235 173.488 23.1235C174.307 23.1235 176.591 22.9526 178.371 22.9526C184.363 22.9526 188 26.1504 188 31.0122C188 35.7381 184.217 39.2393 178.037 39.2393C176.256 39.2393 174.139 39.1046 173.316 39.1046C172.814 39.1046 171.106 39.1725 170.544 39.1725V38.7255ZM174.81 37.9017C175.68 38.0211 176.558 38.0786 177.436 38.0737C182.47 38.0737 185.089 35.1783 185.089 31.1414C185.089 26.9556 182.326 24.0098 177.619 24.0098C176.679 24.0065 175.74 24.0632 174.809 24.1796L174.81 37.9017Z" fill="white"/>
<path d="M102.724 37.2409C102.724 38.0691 103.273 38.5182 104.283 38.7242V39.1624C103.721 39.1624 101.888 39.0944 101.361 39.0944C100.917 39.0944 99.1179 39.1624 98.5562 39.1624V38.7242C99.4939 38.5522 100.046 38.1063 100.046 37.2409V24.9035C100.046 24.1443 99.6177 23.6644 98.5562 23.4936V23.0554C99.1191 23.0554 100.896 23.1222 101.393 23.1222C102.218 23.1222 104.554 22.9907 105.476 22.9907C109.505 22.9907 111.748 24.5836 111.748 27.307C111.748 29.4541 110.075 30.8991 107.507 31.4961C107.946 31.7635 108.34 32.093 108.675 32.4733C109.386 33.2719 111.348 35.9559 112.142 36.8761C112.935 37.7963 113.953 38.8249 115.041 38.8721V39.2347C114.384 39.36 113.717 39.4267 113.047 39.434C112.361 39.4458 111.681 39.2984 111.067 39.0044C110.453 38.7104 109.922 38.2786 109.521 37.7459C108.604 36.68 107.006 34.4134 106.089 33.2938C105.785 32.8921 105.398 32.5539 104.953 32.2998C104.507 32.0457 104.012 31.8811 103.498 31.816C103.243 31.7744 103.003 31.7426 102.721 31.7119L102.724 37.2409ZM102.724 30.6876C103.422 30.7609 104.125 30.7945 104.827 30.7884C107.978 30.7884 108.967 29.0554 108.967 27.5239C108.967 25.3493 107.452 24.0073 104.692 24.0073C104.032 24.0142 103.374 24.071 102.723 24.1771L102.724 30.6876Z" fill="white"/>
<path d="M155.833 37.2409C155.833 38.0691 156.384 38.5182 157.394 38.7242V39.1624C156.833 39.1624 155.002 39.0944 154.475 39.0944C154.016 39.0944 152.23 39.1624 151.666 39.1624V38.7242C152.601 38.5522 153.156 38.1063 153.156 37.2409V24.9035C153.156 24.1443 152.723 23.6644 151.666 23.4936V23.0554C152.231 23.0554 154.001 23.1222 154.503 23.1222C155.329 23.1222 157.664 22.9907 158.58 22.9907C162.616 22.9907 164.853 24.5836 164.853 27.307C164.853 29.4541 163.183 30.8991 160.611 31.4961C161.05 31.7625 161.444 32.0921 161.778 32.4733C162.496 33.2719 164.458 35.9559 165.248 36.8761C166.038 37.7963 167.062 38.8249 168.144 38.8721V39.2347C167.49 39.3601 166.825 39.4268 166.158 39.434C165.471 39.4465 164.79 39.2994 164.175 39.0053C163.56 38.7113 163.029 38.2791 162.627 37.7459C161.71 36.68 160.117 34.4134 159.188 33.2938C158.885 32.8936 158.499 32.5565 158.055 32.3032C157.611 32.0499 157.117 31.8856 156.605 31.8204C156.345 31.7787 156.108 31.747 155.823 31.7163L155.833 37.2409ZM155.833 30.6876C156.532 30.7607 157.235 30.7944 157.939 30.7884C161.091 30.7884 162.078 29.0554 162.078 27.5239C162.078 25.3493 160.562 24.0073 157.807 24.0073C157.146 24.0142 156.486 24.071 155.834 24.1771L155.833 30.6876Z" fill="white"/>
<path d="M78.3063 38.7212C78.7767 38.6147 79.211 38.3953 79.568 38.0838C79.925 37.7723 80.1931 37.379 80.3468 36.941L85.7359 24.5379C85.9339 24.0253 86.0997 23.5018 86.2322 22.9702H87.742C87.8758 23.5026 88.0408 24.0275 88.2361 24.5423L93.9369 36.9761C94.0818 37.4053 94.3402 37.7915 94.687 38.0974C95.0338 38.4033 95.4574 38.6186 95.9167 38.7223V39.1353C95.2999 39.1353 93.3809 39.1013 92.9442 39.1013C92.5074 39.1013 90.6778 39.1353 90.0611 39.1353V38.7223C90.891 38.5273 91.1524 38.1241 91.1524 37.7363C91.1212 37.3551 91.0134 36.9831 90.8349 36.6409L89.6094 33.9668H83.3285L82.2039 36.654C82.0557 36.9792 81.9628 37.325 81.9288 37.6783C81.9288 38.1263 82.1741 38.4835 83.1153 38.7212V39.1342C82.557 39.1342 81.0851 39.1002 80.74 39.1002L78.3006 39.1342L78.3063 38.7212ZM89.0465 32.696L86.3641 26.7234L83.8604 32.7004L89.0465 32.696Z" fill="white"/>
<path d="M131.743 38.7212C132.213 38.6149 132.647 38.3956 133.004 38.084C133.361 37.7725 133.629 37.3791 133.782 36.941L139.178 24.5379C139.377 24.0252 139.544 23.5017 139.678 22.9702H141.186C141.319 23.5026 141.483 24.0275 141.677 24.5423L147.38 36.9761C147.524 37.4051 147.782 37.7912 148.128 38.0971C148.475 38.403 148.898 38.6183 149.356 38.7223V39.1353C148.741 39.1353 146.821 39.1013 146.376 39.1013C145.931 39.1013 144.114 39.1353 143.496 39.1353V38.7223C144.331 38.5273 144.589 38.1241 144.589 37.7363C144.558 37.3556 144.452 36.9838 144.276 36.6409L143.05 33.9668H136.768L135.645 36.6529C135.497 36.9782 135.404 37.324 135.371 37.6772C135.371 38.1252 135.616 38.4824 136.557 38.7201V39.1331C135.998 39.1331 134.527 39.0991 134.18 39.0991L131.739 39.1331L131.743 38.7212ZM142.483 32.696L139.798 26.7288L137.301 32.7004L142.483 32.696Z" fill="white"/>
<path d="M8.00229 18H45.6509V31.5841C45.6509 37.8076 43.2252 51.0071 26.9653 60.8337C26.9653 60.8337 9.34926 53.805 8 31.5841L8.00229 18Z" stroke="white" stroke-width="0.307"/>
<path d="M36.5463 35.4826C36.5463 35.4826 36.2105 36.5047 34.7202 35.4541L29.5994 35.3358C29.5174 35.3666 29.429 35.3783 29.3413 35.3702C29.2537 35.362 29.1693 35.3341 29.095 35.2888C29.0208 35.2435 28.9589 35.1821 28.9142 35.1095C28.8696 35.037 28.8436 34.9553 28.8382 34.8713C28.8921 34.3878 28.9124 33.9015 28.899 33.4154C28.899 33.4154 28.93 33.0375 28.257 33.0375C28.257 33.0375 27.2253 33.1536 27.1921 32.2783C27.1921 32.2783 27.011 31.346 28.4428 31.3778C28.4428 31.3778 28.9013 31.5805 28.93 31.0261C28.93 31.0261 28.8692 27.239 28.899 26.9498C28.899 26.9498 29.0217 26.6015 28.3189 26.5423C28.3189 26.5423 27.3147 26.745 27.1909 26.1041C27.1909 26.1041 27.1302 25.1434 27.8019 25.0831C27.8019 25.0831 28.6239 25.1423 28.7763 24.9374C28.7763 24.9374 28.9609 25.0524 28.9288 24.3568L28.9609 23.1605C28.9609 23.1605 29.0492 22.8406 29.5685 22.8724C29.925 22.9048 30.2843 22.8941 30.638 22.8406C30.7371 22.7198 30.8282 22.5932 30.9109 22.4616C30.9109 22.4616 31.3992 22.4331 31.484 22.5503C31.484 22.5503 32.2154 23.0159 34.9896 22.8406C34.9896 22.8406 35.4172 22.8406 35.5055 22.9579C35.5055 22.9579 36.0259 23.3358 36.3297 22.9294C36.9356 22.8558 37.5473 22.8364 38.157 22.8713C38.5869 22.9738 39.0347 22.9878 39.4708 22.9123C39.9068 22.8367 40.321 22.6734 40.6858 22.4331L41.0217 22.4923C41.0217 22.4923 41.4482 23.1605 41.7531 22.9579C41.7531 22.9579 42.6702 22.8713 42.8192 23.0455C43.0485 23.5402 43.1021 24.0931 42.9717 24.6197C42.9717 24.6197 42.7906 25.1127 43.6744 25.1127C43.6744 25.1127 44.6809 24.9374 44.5571 25.839C44.5571 25.839 44.8311 26.8589 43.1562 26.7154C43.0458 26.8598 42.9816 27.0319 42.9717 27.2105C42.9717 27.2105 42.9419 30.5288 42.9109 30.91C42.9109 30.91 42.8811 31.4348 43.6113 31.4041C43.6113 31.4041 44.588 31.3438 44.6201 32.1896C44.6201 32.1896 44.7405 33.296 43.3374 33.0911C43.3374 33.0911 42.9109 33.1503 42.8479 33.4121L42.7906 34.868C42.7906 34.868 42.8192 35.5954 41.9675 35.4158C41.846 35.4158 37.2135 35.5056 36.8169 35.3895C36.8169 35.3895 36.6014 35.3599 36.5418 35.4749" fill="white"/>
<path d="M26.7031 40.3518C26.8182 40.3056 26.9144 40.2249 26.9771 40.1217C27.2246 40.1058 27.4686 40.0563 27.7016 39.9749L29.7146 40.1217C30.683 40.2122 31.6593 40.0612 32.5484 39.6835C32.7259 39.6846 32.9019 39.7146 33.0688 39.7723C33.0688 39.7723 33.493 39.861 33.6145 40.033L34.7735 40.0034C34.7735 40.0034 35.4441 40.2094 35.3822 40.618V41.1405C35.3822 41.1405 35.2595 42.19 35.5645 42.2492H36.4506C36.4506 42.2492 37.1831 42.569 37.0903 42.9755C37.0954 43.1429 37.0364 43.3063 36.9243 43.435C36.8122 43.5637 36.6547 43.6488 36.4815 43.6744C36.2038 43.7549 35.9172 43.8042 35.6275 43.8212C35.4959 43.9911 35.4115 44.1901 35.3822 44.3996L35.2928 48.2152C35.2928 48.2152 35.2309 48.6227 35.8659 48.5647C35.8659 48.5647 36.8083 48.477 37.0845 48.9744C37.0845 48.9744 37.3287 49.8179 36.8415 49.9603L36.477 50.1334L35.6825 50.255C35.6825 50.255 35.3489 50.2813 35.318 50.8345V51.8522C35.318 51.8522 35.3501 52.5534 34.7689 52.5534L33.9148 52.6114C33.8206 52.6683 33.7136 52.703 33.6026 52.7127C33.4916 52.7224 33.3798 52.7069 33.2763 52.6673C33.2763 52.6673 28.0948 52.7571 27.9114 52.698L27.3015 52.8163C27.3015 52.8163 26.632 53.3991 26.0829 52.9598L25.6565 52.6388C25.517 52.6682 25.3737 52.6778 25.2312 52.6673C25.1085 52.6388 19.4994 52.7264 19.4994 52.7264C19.4994 52.7264 18.3106 52.8448 18.2201 52.4635C18.1544 51.9118 18.1237 51.3569 18.1284 50.8017C18.1284 50.8017 18.1284 50.3635 17.8544 50.3383C17.8544 50.3383 16.6656 50.2791 16.6347 50.1619C16.6347 50.1619 15.9939 49.7237 16.1761 49.291C16.2457 49.1193 16.363 48.969 16.5153 48.8563C16.6676 48.7436 16.8491 48.6727 17.0405 48.6512C17.0405 48.6512 18.016 48.7991 18.016 48.5362C18.0612 48.3852 18.0824 48.2287 18.0791 48.0717C18.0791 48.0717 18.1398 44.6034 18.1089 44.3711C18.1089 44.3711 18.1994 43.9329 17.8028 43.9329C17.5702 43.9967 17.3211 43.9761 17.1035 43.8749C17.1035 43.8749 16.3722 43.9044 16.2197 43.3501C16.151 43.1365 16.1724 42.9058 16.2793 42.7071C16.4138 42.503 16.6167 42.3486 16.8549 42.269C17.0931 42.1894 17.3525 42.1894 17.5907 42.2689C17.5907 42.2689 18.1398 42.4157 18.1994 42.0388L18.1708 40.6377C18.1708 40.6377 18.047 40.2608 18.8093 40.0571C18.8093 40.0571 19.7849 40.3178 20.0886 39.8533C20.0886 39.8533 20.4245 39.2103 20.6962 39.6474C21.332 40.0555 22.1038 40.223 22.8617 40.1173C23.7933 40.0286 24.7299 39.9979 25.6657 40.0253C25.6657 40.0253 26.3363 40.1173 26.5186 40.3178L26.7031 40.3518Z" fill="white"/>
<path d="M18.4182 35.4839C18.4182 35.4839 18.0823 36.506 16.584 35.4544L11.4644 35.3371C11.3823 35.3679 11.2938 35.3796 11.2061 35.3714C11.1184 35.3633 11.0339 35.3354 10.9596 35.2901C10.8853 35.2448 10.8233 35.1834 10.7785 35.1109C10.7337 35.0383 10.7075 34.9567 10.7021 34.8727C10.7561 34.3892 10.776 33.9028 10.7617 33.4168C10.7617 33.4168 10.7949 33.0366 10.1231 33.0366C10.1231 33.0366 9.09142 33.156 9.05933 32.2818C9.05933 32.2818 8.87591 31.3474 10.3077 31.3791C10.3077 31.3791 10.7663 31.5818 10.7949 31.0286C10.7949 31.0286 10.733 27.2426 10.7617 26.9501C10.7617 26.9501 10.8866 26.6039 10.1885 26.5447C10.1885 26.5447 9.18199 26.7474 9.06162 26.1065C9.06162 26.1065 8.99971 25.1469 9.66919 25.0877C9.66919 25.0877 10.4923 25.1469 10.6459 24.9453C10.6459 24.9453 10.8293 25.0549 10.7983 24.3581L10.8293 23.1651C10.8293 23.1651 10.921 22.8442 11.4369 22.8737C11.7937 22.906 12.1533 22.8961 12.5076 22.8442C12.607 22.7241 12.6974 22.5974 12.7781 22.4651C12.7781 22.4651 13.2687 22.4377 13.3593 22.5517C13.3593 22.5517 14.0895 23.0205 16.8649 22.8453C16.8649 22.8453 17.289 22.8453 17.3807 22.9625C17.3807 22.9625 17.8977 23.3404 18.2027 22.9318C18.8109 22.8593 19.4249 22.8399 20.0368 22.8737C20.4666 22.9761 20.9142 22.99 21.35 22.9144C21.7858 22.8389 22.1998 22.6757 22.5646 22.4355L22.8993 22.4958C22.8993 22.4958 23.3257 23.1629 23.633 22.9603C23.633 22.9603 24.55 22.8726 24.6991 23.0479C24.9287 23.5427 24.9815 24.0959 24.8492 24.6221C24.8492 24.6221 24.6681 25.1162 25.552 25.1162C25.552 25.1162 26.5562 24.9431 26.4358 25.8425C26.4358 25.8425 26.7109 26.8624 25.0338 26.7189C24.9235 26.8635 24.8594 27.0354 24.8492 27.2141C24.8492 27.2141 24.8194 30.5323 24.7896 30.9136C24.7896 30.9136 24.7598 31.4339 25.4912 31.4076C25.4912 31.4076 26.4668 31.3463 26.4954 32.1942C26.4954 32.1942 26.6169 33.2995 25.2161 33.0947C25.2161 33.0947 24.7885 33.1549 24.7266 33.4157L24.667 34.8716C24.667 34.8716 24.6979 35.6001 23.8416 35.4259C23.7201 35.4259 19.0899 35.5124 18.6922 35.3974C18.6922 35.3974 18.4801 35.3678 18.4193 35.4828" fill="white"/>
<path d="M36.5463 35.4826C36.5463 35.4826 36.2105 36.5047 34.7202 35.4541L29.5994 35.3358C29.5174 35.3666 29.429 35.3783 29.3413 35.3702C29.2537 35.362 29.1693 35.3341 29.095 35.2888C29.0208 35.2435 28.9589 35.1821 28.9142 35.1095C28.8696 35.037 28.8436 34.9553 28.8382 34.8713C28.8921 34.3878 28.9124 33.9015 28.899 33.4154C28.899 33.4154 28.93 33.0375 28.257 33.0375C28.257 33.0375 27.2253 33.1536 27.1921 32.2783C27.1921 32.2783 27.011 31.346 28.4428 31.3778C28.4428 31.3778 28.9013 31.5805 28.93 31.0261C28.93 31.0261 28.8692 27.239 28.899 26.9498C28.899 26.9498 29.0217 26.6015 28.3189 26.5423C28.3189 26.5423 27.3147 26.745 27.1909 26.1041C27.1909 26.1041 27.1302 25.1434 27.8019 25.0831C27.8019 25.0831 28.6239 25.1423 28.7763 24.9374C28.7763 24.9374 28.9609 25.0524 28.9288 24.3568L28.9609 23.1605C28.9609 23.1605 29.0492 22.8406 29.5685 22.8724C29.925 22.9048 30.2843 22.8941 30.638 22.8406C30.7371 22.7198 30.8282 22.5932 30.9109 22.4616C30.9109 22.4616 31.3992 22.4331 31.484 22.5503C31.484 22.5503 32.2154 23.0159 34.9896 22.8406C34.9896 22.8406 35.4172 22.8406 35.5055 22.9579C35.5055 22.9579 36.0259 23.3358 36.3297 22.9294C36.9356 22.8558 37.5473 22.8364 38.157 22.8713C38.5869 22.9738 39.0347 22.9878 39.4708 22.9123C39.9068 22.8367 40.321 22.6734 40.6858 22.4331L41.0217 22.4923C41.0217 22.4923 41.4482 23.1605 41.7531 22.9579C41.7531 22.9579 42.6702 22.8713 42.8192 23.0455C43.0485 23.5402 43.1021 24.0931 42.9717 24.6197C42.9717 24.6197 42.7906 25.1127 43.6744 25.1127C43.6744 25.1127 44.6809 24.9374 44.5571 25.839C44.5571 25.839 44.8311 26.8589 43.1562 26.7154C43.0458 26.8598 42.9816 27.0319 42.9717 27.2105C42.9717 27.2105 42.9419 30.5288 42.9109 30.91C42.9109 30.91 42.8811 31.4348 43.6113 31.4041C43.6113 31.4041 44.588 31.3438 44.6201 32.1896C44.6201 32.1896 44.7405 33.296 43.3374 33.0911C43.3374 33.0911 42.9109 33.1503 42.8479 33.4121L42.7906 34.868C42.7906 34.868 42.8192 35.5954 41.9675 35.4158C41.846 35.4158 37.2135 35.5056 36.8169 35.3895C36.8169 35.3895 36.6014 35.3599 36.5418 35.4749" fill="#716F6F"/>
<path d="M36.5466 35.4837C36.5466 35.4837 36.2107 36.5058 34.7204 35.4552L29.5985 35.3369C29.5165 35.3676 29.4281 35.3794 29.3404 35.3712C29.2528 35.3631 29.1684 35.3352 29.0941 35.2899C29.0199 35.2446 28.9579 35.1832 28.9133 35.1106C28.8687 35.038 28.8426 34.9564 28.8373 34.8724C28.8918 34.3886 28.9121 33.9018 28.8981 33.4154C28.8981 33.4154 28.929 33.0375 28.2573 33.0375C28.2573 33.0375 27.2256 33.1547 27.1912 32.2794C27.1912 32.2794 27.01 31.3471 28.4407 31.3778C28.4407 31.3778 28.8992 31.5816 28.9279 31.0272C28.9279 31.0272 28.8671 27.2401 28.8969 26.9498C28.8969 26.9498 29.0208 26.6014 28.3238 26.5423C28.3238 26.5423 27.3184 26.7461 27.1958 26.1041C27.1958 26.1041 27.1361 25.1423 27.8068 25.0831C27.8068 25.0831 28.6287 25.1412 28.7812 24.9374C28.7812 24.9374 28.9657 25.0524 28.9336 24.3557L28.9669 23.1594C28.9669 23.1594 29.054 22.8395 29.5756 22.8713C29.9313 22.9037 30.2899 22.893 30.6429 22.8395C30.7421 22.7189 30.8336 22.5927 30.9168 22.4616C30.9168 22.4616 31.404 22.432 31.49 22.5503C31.49 22.5503 32.2214 23.0159 34.9956 22.8406C34.9956 22.8406 35.4232 22.8406 35.5114 22.9578C35.5114 22.9578 36.0319 23.3358 36.3357 22.9294C36.9416 22.8558 37.5533 22.8364 38.163 22.8713C38.5931 22.9739 39.0411 22.9879 39.4773 22.9124C39.9135 22.8368 40.3279 22.6735 40.693 22.4331L41.03 22.4912C41.03 22.4912 41.4564 23.1605 41.7602 22.9578C41.7602 22.9578 42.6773 22.8724 42.8263 23.0444C43.056 23.539 43.11 24.0919 42.9799 24.6186C42.9799 24.6186 42.7977 25.1138 43.6815 25.1138C43.6815 25.1138 44.688 24.9385 44.5642 25.8401C44.5642 25.8401 44.8382 26.8611 43.1634 26.7165C43.0532 26.8614 42.9894 27.0338 42.9799 27.2127C42.9799 27.2127 42.9501 30.531 42.9192 30.9111C42.9192 30.9111 42.8882 31.4359 43.6196 31.4074C43.6196 31.4074 44.5963 31.3471 44.6284 32.1917C44.6284 32.1917 44.743 33.2982 43.3456 33.0933C43.3456 33.0933 42.9192 33.1536 42.8561 33.4143L42.7977 34.8713C42.7977 34.8713 42.8263 35.5998 41.9757 35.4191C41.8542 35.4191 37.2207 35.5078 36.824 35.3917C36.8217 35.3982 36.6062 35.3698 36.5466 35.4837Z" stroke="#716F6F" stroke-width="0.013"/>
<path d="M30.7884 23.4836C30.7884 23.4836 30.8492 24.0664 30.8492 24.2143C30.8492 24.3622 30.7598 32.6288 30.7598 32.6288C30.7816 32.8165 30.7479 33.0063 30.6624 33.1765C30.5768 33.3468 30.443 33.4906 30.276 33.5917C30.276 33.5917 30.1212 33.6487 30.0926 33.2412L30.1488 24.5068C30.1488 24.5068 30.2095 23.4267 30.7884 23.4836" fill="white"/>
<path d="M30.7896 23.4836C30.7896 23.4836 30.8493 24.0664 30.8493 24.2143C30.8493 24.3622 30.7598 32.631 30.7598 32.631C30.7811 32.8187 30.7466 33.0083 30.6605 33.1781C30.5743 33.348 30.4399 33.4913 30.2726 33.5917C30.2726 33.5917 30.1179 33.6498 30.0881 33.2423L30.1488 24.5068C30.1488 24.5068 30.2096 23.4267 30.7896 23.4836V23.4836Z" stroke="#716F6F" stroke-width="0.016"/>
<path d="M29.7839 33.6764C29.7839 33.6764 29.8447 25.4602 29.816 25.3178C29.7874 25.1754 29.8447 25.4372 29.8447 25.4372C29.7859 24.7525 29.8906 24.0641 30.1508 23.4237C30.1508 23.4237 30.027 22.9318 29.3266 23.542L29.2956 24.735C29.2956 24.735 29.2956 25.4065 28.6571 25.3769C28.2773 25.3561 27.9012 25.4584 27.5898 25.6673C27.5898 25.6673 27.4076 26.3092 28.1068 26.1942C28.1068 26.1942 29.205 26.1942 29.2658 26.6324L29.2039 31.0308C29.2417 31.1189 29.2542 31.2151 29.2401 31.3093C29.2261 31.4036 29.186 31.4926 29.124 31.5672C29.062 31.6417 28.9803 31.6991 28.8873 31.7335C28.7944 31.7678 28.6935 31.7779 28.5952 31.7626C28.5952 31.7626 27.5554 31.7001 27.5887 32.3103C27.5887 32.3103 27.803 32.834 28.6869 32.6609C28.8588 32.689 29.0146 32.7749 29.1262 32.903C29.2378 33.0311 29.2978 33.1931 29.2956 33.3598V34.4662C29.2956 34.4662 29.2337 34.9044 29.8447 34.9329H34.5986C34.5986 34.9329 34.8405 34.9614 34.8405 34.67C34.8405 34.67 34.8107 34.4378 34.4462 34.4378L30.4855 34.3786C30.4855 34.3786 29.8447 34.5835 29.7839 33.6797" fill="white"/>
<path d="M30.6981 33.6638C30.6981 33.6638 30.5755 34.0713 31.0329 33.9859H34.1716L35.0233 34.1623C35.0233 34.1623 35.9072 33.9563 35.0233 33.4907C35.0233 33.4907 32.2205 33.517 31.9774 33.4601C31.9774 33.4601 31.3974 33.3154 31.2736 33.2859C31.2736 33.2859 30.9721 33.1697 30.7004 33.6616" fill="white"/>
<path d="M30.6968 33.665C30.6968 33.665 30.5742 34.0736 31.0316 33.9936H34.1714L35.0232 34.17C35.0232 34.17 35.907 33.963 35.0232 33.4974C35.0232 33.4974 32.2203 33.5237 31.9762 33.4678C31.9762 33.4678 31.3973 33.3221 31.2735 33.2925C31.2723 33.287 30.9697 33.1709 30.6968 33.665Z" stroke="#716F6F" stroke-width="0.016"/>
<path d="M35.9073 34.0727C35.9073 34.0727 35.3341 34.0727 35.3582 34.8023C35.3781 34.9572 35.458 35.0993 35.5821 35.2007C35.7063 35.3021 35.8656 35.3554 36.0288 35.3501C36.1856 35.3221 36.3246 35.2363 36.4159 35.1114C36.5072 34.9864 36.5436 34.8322 36.5171 34.6818C36.5171 34.6818 36.1812 33.9544 35.9073 34.0695" fill="white"/>
<path d="M36.3342 33.7826C36.3342 33.7826 36.6081 33.4923 36.7927 33.4923C36.7927 33.4923 39.8397 33.753 40.3544 33.4047C40.3544 33.4047 40.813 33.3181 40.9368 33.4047C40.9368 33.4047 41.3953 33.753 41.3953 33.9524C41.3953 33.9524 41.3655 34.2164 40.8222 34.062C40.8222 34.062 37.3831 34.0937 37.1951 34.0937C37.1951 34.0937 36.2482 34.2964 36.3422 33.7728" fill="white"/>
<path d="M36.3342 33.7837C36.3342 33.7837 36.6081 33.4923 36.7927 33.4923C36.7927 33.4923 39.8409 33.753 40.3567 33.4047C40.3567 33.4047 40.8153 33.3181 40.9391 33.4047C40.9391 33.4047 41.3976 33.7541 41.3976 33.9601C41.3976 33.9601 41.3678 34.2241 40.8244 34.0696C40.8244 34.0696 37.3785 34.1014 37.1962 34.1014C37.1962 34.1014 36.2493 34.3041 36.3433 33.7793L36.3342 33.7837Z" stroke="#716F6F" stroke-width="0.016"/>
<path d="M36.73 34.727C36.73 34.727 36.73 34.4915 37.1576 34.4915L41.4221 34.463C41.4221 34.463 41.8199 34.6668 41.8199 33.97C41.8199 33.97 41.9758 30.7931 41.9895 27.3007C41.9895 26.26 42.0434 25.1688 42.0056 24.1566C42.0056 24.1566 41.9104 23.7184 41.7878 23.6297C41.7878 23.6297 41.7878 23.1652 42.3071 23.3394C42.3071 23.3394 42.7656 23.369 42.6429 24.0405L42.675 25.0549C42.675 25.0549 42.5833 25.4931 43.4041 25.377C43.4041 25.377 44.2261 25.4953 44.2593 25.7845C44.2593 25.7845 44.5023 26.3695 43.5291 26.3104H42.8241C42.7356 26.3655 42.6674 26.4458 42.6294 26.54C42.5913 26.6342 42.5852 26.7374 42.612 26.8351L42.5214 31.0593C42.5214 31.0593 42.4595 31.7856 43.1921 31.7582C43.1921 31.7582 43.9521 31.7276 44.1091 31.962C44.1091 31.962 44.6307 32.6894 43.5004 32.6313C43.2125 32.6085 42.9227 32.6382 42.6464 32.719C42.4847 33.2085 42.4125 33.7211 42.4332 34.234C42.4332 34.234 42.4951 35.0502 41.86 34.9603C41.86 34.9603 37.6185 35.0184 37.2276 34.9319C37.2276 34.9319 36.8011 35.0502 36.7404 34.7281" fill="white"/>
<path d="M31.2467 23.2196L31.1549 32.5707C31.1549 32.5707 31.1251 33.0089 31.8875 33.0922C32.2509 33.1365 32.6188 33.1365 32.9822 33.0922C32.9822 33.0922 33.5646 33.0615 35.0548 33.1217C35.0548 33.1217 35.4228 33.4745 35.4538 33.0341C35.4538 33.0341 35.6945 25.4653 35.5764 23.8889C35.5764 23.8889 35.5432 23.2196 35.0262 23.19C34.1855 23.2798 33.3369 23.2798 32.4962 23.19L31.5791 22.96C31.5791 22.96 31.2134 22.9884 31.2444 23.2196" fill="white"/>
<path d="M36.0609 23.6891C36.0609 23.6891 35.9692 28.0864 36.0002 28.2321L35.9394 31.9294L35.8156 33.2122C35.8156 33.2122 35.999 33.474 36.1526 33.2999C36.6695 33.1727 37.2042 33.1239 37.7369 33.1553C37.7369 33.1553 39.6857 33.3283 40.0835 33.0348C40.0835 33.0348 40.3896 33.1805 40.4778 32.7138C40.4778 32.7138 40.5982 24.5622 40.542 24.4165C40.594 23.9912 40.6128 23.5628 40.5982 23.1348C40.5982 23.1348 40.5718 22.873 40.0525 23.1041C40.0525 23.1041 40.1122 23.3386 37.2188 23.2476C37.2188 23.2476 36.1217 23.2192 36.0598 23.6858" fill="white"/>
<path d="M40.9074 23.572L40.8776 32.7742C40.8776 32.7742 41.1207 33.5925 41.5161 33.507C41.5621 33.3521 41.5921 33.1932 41.6056 33.0327L41.7294 24.2688C41.7294 24.2688 41.4233 22.8753 40.9074 23.572Z" fill="white"/>
<path d="M40.9061 23.5714L40.8763 32.7735C40.8763 32.7735 41.1205 33.5918 41.516 33.5064C41.5623 33.3537 41.5927 33.197 41.6066 33.0386L41.7292 24.2747C41.7292 24.2747 41.422 22.8746 40.9061 23.5714Z" stroke="#716F6F" stroke-width="0.016"/>
<path d="M37.1646 26.3277C37.0741 26.0955 37.6828 26.0659 37.6828 26.0659L37.9889 26.124C38.1339 26.1111 38.2801 26.1313 38.4153 26.1831C38.4436 26.224 38.4623 26.2704 38.4698 26.3189C38.4774 26.3674 38.4737 26.4169 38.4591 26.4639C38.4444 26.5109 38.4191 26.5543 38.385 26.591C38.3509 26.6276 38.3088 26.6567 38.2617 26.6761L38.1402 27.0573C38.1081 27.3783 38.1402 30.1455 38.1402 30.1455C38.2253 30.291 38.3276 30.4266 38.4451 30.5498C38.4451 30.8138 38.1092 30.7557 38.1092 30.7557L37.2265 30.7853C36.9514 30.7557 37.0431 30.4632 37.0431 30.4632C37.348 30.3175 37.4398 29.7928 37.4398 29.7928V26.9105L37.1646 26.3277Z" fill="#716F6F"/>
<path d="M33.0506 29.0364L32.9876 29.9347L33.2592 30.3729C33.4438 30.6052 33.1389 30.7826 33.1389 30.7826L32.1633 30.695C31.9822 30.6052 32.1633 30.3148 32.1633 30.3148C32.2435 30.2494 32.3092 30.1692 32.3564 30.0791C32.4037 29.989 32.4316 29.8907 32.4384 29.7901L32.4144 28.1041L32.4453 26.8816C32.4453 26.7348 32.2023 26.4751 32.2023 26.4751C31.9902 26.4456 32.0498 26.1837 32.0498 26.1837C32.1106 26.0369 32.623 26.1246 32.623 26.1246H33.9046C35.1244 26.5036 34.9364 27.3483 34.9364 27.3483C34.9406 27.6072 34.8609 27.8611 34.7082 28.075C34.5555 28.289 34.3373 28.4526 34.0835 28.5434L34.0204 29.009L34.9054 30.3466C34.9468 30.371 34.9803 30.406 35.002 30.4476C35.0237 30.4892 35.0327 30.5359 35.0281 30.5821C34.9054 30.9031 34.4171 30.5821 34.4171 30.5821L33.3315 28.9488C33.2398 28.8316 33.0563 29.0364 33.0563 29.0364H33.0506ZM33.0873 26.7359C33.1171 27.3789 33.1171 28.252 33.1171 28.252C33.1837 28.3121 33.2644 28.3561 33.3524 28.3803C33.4404 28.4044 33.5332 28.4081 33.623 28.3909C33.7128 28.3737 33.797 28.3363 33.8686 28.2816C33.9401 28.2269 33.9969 28.1567 34.0342 28.0768C34.7942 27.3789 34.0342 26.7359 33.9138 26.5639C33.7934 26.3919 33.1813 26.5332 33.1813 26.5332L33.0873 26.7359Z" fill="#716F6F"/>
<path d="M26.7031 40.3518C26.8182 40.3056 26.9144 40.2249 26.9771 40.1217C27.2246 40.1058 27.4686 40.0563 27.7016 39.9749L29.7146 40.1217C30.683 40.2122 31.6593 40.0612 32.5484 39.6835C32.7259 39.6846 32.9019 39.7146 33.0688 39.7723C33.0688 39.7723 33.493 39.861 33.6145 40.033L34.7735 40.0034C34.7735 40.0034 35.4441 40.2094 35.3822 40.618V41.1405C35.3822 41.1405 35.2595 42.19 35.5645 42.2492H36.4506C36.4506 42.2492 37.1831 42.569 37.0903 42.9755C37.0954 43.1429 37.0364 43.3063 36.9243 43.435C36.8122 43.5637 36.6547 43.6488 36.4815 43.6744C36.2038 43.7549 35.9172 43.8042 35.6275 43.8212C35.4959 43.9911 35.4115 44.1901 35.3822 44.3996L35.2928 48.2152C35.2928 48.2152 35.2309 48.6227 35.8659 48.5647C35.8659 48.5647 36.8083 48.477 37.0845 48.9744C37.0845 48.9744 37.3287 49.8179 36.8415 49.9603L36.477 50.1334L35.6825 50.255C35.6825 50.255 35.3489 50.2813 35.318 50.8345V51.8522C35.318 51.8522 35.3501 52.5534 34.7689 52.5534L33.9148 52.6114C33.8206 52.6683 33.7136 52.703 33.6026 52.7127C33.4916 52.7224 33.3798 52.7069 33.2763 52.6673C33.2763 52.6673 28.0948 52.7571 27.9114 52.698L27.3015 52.8163C27.3015 52.8163 26.632 53.3991 26.0829 52.9598L25.6565 52.6388C25.517 52.6682 25.3737 52.6778 25.2312 52.6673C25.1085 52.6388 19.4994 52.7264 19.4994 52.7264C19.4994 52.7264 18.3106 52.8448 18.2201 52.4635C18.1544 51.9118 18.1237 51.3569 18.1284 50.8017C18.1284 50.8017 18.1284 50.3635 17.8544 50.3383C17.8544 50.3383 16.6656 50.2791 16.6347 50.1619C16.6347 50.1619 15.9939 49.7237 16.1761 49.291C16.2457 49.1193 16.363 48.969 16.5153 48.8563C16.6676 48.7436 16.8491 48.6727 17.0405 48.6512C17.0405 48.6512 18.016 48.7991 18.016 48.5362C18.0612 48.3852 18.0824 48.2287 18.0791 48.0717C18.0791 48.0717 18.1398 44.6034 18.1089 44.3711C18.1089 44.3711 18.1994 43.9329 17.8028 43.9329C17.5702 43.9967 17.3211 43.9761 17.1035 43.8749C17.1035 43.8749 16.3722 43.9044 16.2197 43.3501C16.151 43.1365 16.1724 42.9058 16.2793 42.7071C16.4138 42.503 16.6167 42.3486 16.8549 42.269C17.0931 42.1894 17.3525 42.1894 17.5907 42.2689C17.5907 42.2689 18.1398 42.4157 18.1994 42.0388L18.1708 40.6377C18.1708 40.6377 18.047 40.2608 18.8093 40.0571C18.8093 40.0571 19.7849 40.3178 20.0886 39.8533C20.0886 39.8533 20.4245 39.2103 20.6962 39.6474C21.332 40.0555 22.1038 40.223 22.8617 40.1173C23.7933 40.0286 24.7299 39.9979 25.6657 40.0253C25.6657 40.0253 26.3363 40.1173 26.5186 40.3178L26.7031 40.3518Z" fill="#716F6F"/>
<path d="M26.7026 40.3139C26.8177 40.2678 26.9139 40.187 26.9766 40.0839C27.2265 40.0683 27.4728 40.0185 27.7079 39.936L29.7198 40.0828C30.6885 40.1739 31.6655 40.0229 32.5547 39.6446C32.7322 39.6456 32.9082 39.6756 33.0752 39.7333C33.0752 39.7333 33.5005 39.821 33.6197 39.9929L34.781 39.9645C34.781 39.9645 35.4504 40.1704 35.3885 40.5779V41.1016C35.3885 41.1016 35.267 42.1511 35.5719 42.208H36.4569C36.4569 42.208 37.1883 42.529 37.0977 42.9365C37.1029 43.1039 37.0438 43.2673 36.9317 43.396C36.8196 43.5247 36.6622 43.6099 36.489 43.6355C36.2118 43.716 35.9255 43.765 35.6361 43.7812C35.5038 43.9521 35.4186 44.1522 35.3885 44.3629L35.298 48.1795C35.298 48.1795 35.2372 48.5849 35.8711 48.5279C35.8711 48.5279 36.8146 48.4425 37.092 48.9365C37.092 48.9365 37.3362 49.7812 36.849 49.9225L36.4833 50.0967L35.6889 50.215C35.6889 50.215 35.3541 50.2435 35.3255 50.7945V51.8166C35.3255 51.8166 35.3553 52.5144 34.7764 52.5144L33.9223 52.5736C33.8282 52.6311 33.7211 52.6663 33.6098 52.6764C33.4986 52.6865 33.3865 52.6712 33.2827 52.6316C33.2827 52.6316 28.1011 52.7193 27.9177 52.659L27.3067 52.7773C27.3067 52.7773 26.6384 53.3601 26.0893 52.9208L25.6617 52.5999C25.5222 52.6293 25.379 52.64 25.2364 52.6316C25.1137 52.5999 19.5046 52.6897 19.5046 52.6897C19.5046 52.6897 18.3147 52.8069 18.2241 52.4268C18.1585 51.8751 18.1279 51.3201 18.1324 50.7649C18.1324 50.7649 18.1324 50.3267 17.8573 50.3004C17.8573 50.3004 16.6697 50.2424 16.6376 50.1251C16.6376 50.1251 15.9979 49.6869 16.179 49.2487C16.2498 49.0776 16.3679 48.928 16.5208 48.8161C16.6736 48.7042 16.8555 48.6341 17.0468 48.6134C17.0468 48.6134 18.0212 48.7634 18.0212 48.4972C18.066 48.3466 18.0869 48.1904 18.0831 48.0338C18.0831 48.0338 18.1439 44.5666 18.1141 44.3333C18.1141 44.3333 18.2046 43.8951 17.8069 43.8951C17.574 43.9592 17.3246 43.9389 17.1064 43.8381C17.1064 43.8381 16.3762 43.8666 16.2237 43.3134C16.1546 43.1001 16.1765 42.8694 16.2845 42.6714C16.4185 42.4672 16.6212 42.3126 16.8593 42.2329C17.0974 42.1533 17.3568 42.1534 17.5948 42.2332C17.5948 42.2332 18.1439 42.3811 18.2046 42.0032L18.1737 40.6031C18.1737 40.6031 18.051 40.2263 18.8134 40.0214C18.8134 40.0214 19.7889 40.2843 20.0927 39.8177C20.0927 39.8177 20.4274 39.1757 20.7003 39.6106C21.3359 40.0189 22.1079 40.1865 22.8657 40.0806C23.7973 39.9917 24.734 39.9613 25.6697 39.9897C25.6697 39.9897 26.3415 40.0806 26.5238 40.2832L26.7026 40.3139Z" stroke="#716F6F" stroke-width="0.013"/>
<path d="M27.4946 51.7955C27.6826 51.702 27.8946 51.6617 28.1056 51.6793C28.3498 51.7374 31.9138 51.6508 31.9138 51.6508C31.9138 51.6508 33.4671 51.7659 33.7125 51.5599L34.0759 51.4449C34.1708 51.3288 34.2246 51.1868 34.2295 51.0396C34.2295 50.804 34.2604 50.0175 34.2604 50.0175L34.3533 49.7283C34.3533 49.7283 34.3212 49.4369 34.3533 41.6589C34.3845 41.4851 34.3759 41.307 34.328 41.1368C34.2801 40.9665 34.1941 40.8083 34.0759 40.6729C34.0759 40.6729 34.0759 40.4418 34.1974 40.4703C34.3189 40.4987 34.2593 40.502 34.2593 40.502C34.2593 40.502 34.8072 40.353 34.8978 40.5579C35.0303 40.9143 35.0415 41.3015 34.9299 41.6643C34.9299 41.6643 34.868 42.5101 35.33 42.5101C35.4058 42.5675 35.4956 42.6056 35.591 42.621C35.6864 42.6363 35.7843 42.6283 35.8756 42.5977C35.8756 42.5977 36.6678 42.6864 36.6678 42.9176C36.6716 42.9839 36.6593 43.0502 36.6316 43.1111C36.6039 43.172 36.5617 43.2259 36.5084 43.2685C36.455 43.311 36.392 43.3411 36.3243 43.3562C36.2567 43.3714 36.1863 43.3713 36.1187 43.3558L35.3861 43.4127C35.2424 43.4464 35.1178 43.5319 35.0385 43.6514C34.9593 43.7709 34.9314 43.915 34.9608 44.0536C35.0227 44.6068 34.9299 48.5681 34.9299 48.5681C34.9299 48.5681 34.9299 49.0359 35.6934 49.0063C35.6934 49.0063 36.6368 48.9757 36.6368 49.2364C36.6733 49.303 36.6903 49.3778 36.6861 49.4529C36.682 49.5279 36.6568 49.6006 36.6132 49.6632C36.5696 49.7257 36.5092 49.776 36.4384 49.8086C36.3675 49.8413 36.2888 49.8552 36.2104 49.8488C36.2104 49.8488 34.9299 49.8181 35.0227 50.1675C34.9902 50.4903 34.9385 50.8111 34.868 51.1283C34.868 51.1283 34.9929 51.7998 34.837 51.917C34.837 51.917 34.7465 52.2939 33.92 52.2369C33.92 52.2369 28.6788 52.2085 27.8546 52.2665C27.8546 52.2665 27.3662 52.2084 27.4877 51.8009" fill="white"/>
<path d="M26.5542 51.2446C26.6927 51.2661 26.8195 51.3321 26.9135 51.4317C27.0075 51.5312 27.0631 51.6585 27.0712 51.7924C27.0712 52.2569 27.1022 52.5198 26.7949 52.5778C26.7193 52.6013 26.6393 52.6092 26.5603 52.6011C26.4812 52.593 26.4048 52.569 26.3361 52.5307C26.2674 52.4925 26.2079 52.4408 26.1616 52.3791C26.1152 52.3173 26.083 52.247 26.067 52.1725C26.0031 51.9877 26.0186 51.7863 26.1099 51.6123C26.2012 51.4384 26.361 51.3062 26.5542 51.2446" fill="white"/>
<path d="M27.1626 51.0102C27.1626 51.0102 27.7106 50.6586 27.9238 50.7188C29.1319 50.8065 30.3448 50.8167 31.5543 50.7495C32.4072 50.6027 31.889 50.7199 31.889 50.7199C31.889 50.7199 32.6216 50.7199 32.8325 50.4559C32.8977 50.4418 32.966 50.4486 33.0267 50.4754C33.0874 50.5021 33.1372 50.5472 33.1684 50.6038L33.6269 51.0716C33.6269 51.0716 33.6613 51.3597 33.1409 51.3301C33.1409 51.3301 28.1714 51.3301 28.0212 51.3597C28.0212 51.3597 27.0766 51.5032 27.1672 51.0113" fill="white"/>
<path d="M27.1613 51.0065C27.1613 51.0065 27.7093 50.6549 27.9225 50.714C29.1304 50.8039 30.3433 50.8164 31.553 50.7513C32.407 50.6045 31.8877 50.7206 31.8877 50.7206C31.8877 50.7206 32.6203 50.7206 32.8323 50.4555C32.8977 50.4418 32.9659 50.449 33.0265 50.4759C33.0872 50.5028 33.137 50.548 33.1682 50.6045L33.6268 51.0733C33.6268 51.0733 33.66 51.3625 33.1407 51.3319C33.1407 51.3319 28.1713 51.3319 28.0199 51.3625C28.0199 51.3625 27.0753 51.506 27.1659 51.0131L27.1613 51.0065Z" stroke="#716F6F" stroke-width="0.016"/>
<path d="M19.9392 40.6719C19.9392 40.6719 20.1525 40.6719 20.1215 41.0213L20.0596 49.8159C20.08 49.9974 20.0517 50.1809 19.9773 50.349C19.9029 50.5171 19.7848 50.6643 19.6343 50.7767C19.6343 50.7767 19.358 51.0966 19.358 50.6025L19.483 41.6326C19.4973 41.2676 19.6612 40.9225 19.9392 40.6719" fill="white"/>
<path d="M19.9393 40.6719C19.9393 40.6719 20.1525 40.6719 20.1238 41.0213L20.0596 49.8181C20.0799 49.9997 20.0514 50.1832 19.9768 50.3514C19.9022 50.5195 19.7839 50.6666 19.6332 50.7789C19.6332 50.7789 19.3558 51.0988 19.3558 50.6047L19.4819 41.6337C19.4963 41.2682 19.6606 40.9227 19.9393 40.6719V40.6719Z" stroke="#716F6F" stroke-width="0.016"/>
<path d="M19.4553 40.7297C19.3035 40.9754 19.1903 41.2412 19.1195 41.5184L19.0885 43.4673C19.0885 43.4673 19.0576 44.7195 19.0885 44.8663C19.1195 45.0131 19.0576 48.6808 19.0576 48.6808C19.0576 48.6808 19.0266 49.3775 19.0576 49.6119V51.184C19.0576 51.184 18.9968 51.884 19.5448 51.7065C19.5448 51.7065 24.9097 51.5915 25.2456 51.6802C25.2456 51.6802 25.7316 51.7668 25.5517 52.0001C25.5517 52.0001 25.5517 52.2049 25.2078 52.1458C23.6071 52.2829 21.9996 52.3316 20.3931 52.2915C20.3931 52.2915 18.8695 52.3769 18.7755 52.206C18.7755 52.206 18.5337 52.1765 18.5337 51.3297C18.5391 51.0186 18.5192 50.7077 18.4741 50.3996C18.4741 50.3996 18.5337 49.9866 17.7725 49.9022C17.7725 49.9022 16.7064 50.0775 16.6754 49.464C16.6754 49.464 16.8267 49.0258 17.8642 49.0839C17.8642 49.0839 18.6254 49.2011 18.4741 48.6172L18.5646 44.3097C18.5646 44.3097 18.6586 43.5495 18.1382 43.5188C17.9241 43.5049 17.709 43.5152 17.4974 43.5495C17.4974 43.5495 16.6147 43.5495 16.6754 43.0576C16.8081 42.8829 16.993 42.7507 17.2058 42.6784C17.4186 42.606 17.6493 42.5969 17.8676 42.6523C17.958 42.6689 18.0512 42.6651 18.1397 42.6413C18.2283 42.6174 18.3099 42.5742 18.3779 42.5149C18.4459 42.4557 18.4985 42.3821 18.5315 42.3C18.5645 42.2179 18.577 42.1296 18.5681 42.0421C18.5681 42.0421 18.5371 40.5555 18.9028 40.4985C18.9028 40.4985 19.6663 40.5248 19.453 40.7297" fill="white"/>
<path d="M20.3679 50.3696C20.5182 50.5063 20.6954 50.6129 20.8893 50.6832C21.0832 50.7536 21.2898 50.7863 21.4971 50.7793L25.6343 50.8352C25.6343 50.8352 26.0928 50.8659 26.0653 51.097C26.0653 51.097 26 51.4465 25.4543 51.3293L20.4562 51.2723L19.9094 51.3041C19.9094 51.3041 19.5403 51.246 20.1215 50.5745L20.3679 50.3696Z" fill="white"/>
<path d="M20.3646 50.3696C20.515 50.5063 20.6925 50.6129 20.8866 50.683C21.0807 50.7532 21.2875 50.7856 21.4949 50.7783L25.6379 50.8363C25.6379 50.8363 26.0964 50.867 26.0689 51.0981C26.0689 51.0981 26.0047 51.4476 25.459 51.3326L20.4552 51.2745L19.9061 51.3052C19.9061 51.3052 19.5404 51.246 20.1216 50.5745L20.3646 50.3696Z" stroke="#716F6F" stroke-width="0.016"/>
<path d="M33.1651 49.9867C33.3061 50.2676 33.4913 50.5262 33.7142 50.7535C33.7142 50.7535 34.0501 51.1293 33.9584 50.4599L34.0191 42.0718C33.9609 41.8229 33.9609 41.5648 34.0191 41.3159L33.6534 40.675C33.6534 40.675 33.2557 40.3836 33.2557 40.8492L33.1961 49.7884L33.1651 49.9867Z" fill="white"/>
<path d="M33.1638 49.9884C33.3057 50.2693 33.4917 50.5279 33.7152 50.7553C33.7152 50.7553 34.0511 51.131 33.9594 50.4606L34.0201 42.0702C33.9619 41.8221 33.9619 41.5647 34.0201 41.3165L33.6545 40.6746C33.6545 40.6746 33.2555 40.3843 33.2555 40.8487L33.1948 49.7879L33.1638 49.9884Z" stroke="#716F6F" stroke-width="0.016"/>
<path d="M26.3991 46.0007C26.4145 46.4566 26.3938 46.9129 26.3372 47.3657C26.2879 47.7349 26.461 49.4362 26.3062 50.3093C26.3062 50.3093 26.2787 50.6018 25.6356 50.3411C25.6356 50.3411 21.738 50.4265 21.6142 50.3093C21.6142 50.3093 20.5481 50.3411 20.4564 49.8152C20.4564 49.8152 20.6088 45.8255 20.5183 45.6776C20.5183 45.6776 20.4564 43.4943 20.5183 43.2905C20.5183 43.2905 20.6088 41.2814 20.5492 41.048C20.5667 40.813 20.5458 40.5769 20.4873 40.348C20.4873 40.348 20.4873 40.0566 21.0066 40.2308C21.0066 40.2308 21.1866 40.5518 22.1931 40.4094C22.6679 40.4769 23.1499 40.4861 23.6272 40.4367C24.2753 40.3773 24.9279 40.3773 25.576 40.4367C25.7536 40.4083 25.9359 40.4475 26.0835 40.546C26.2312 40.6445 26.3326 40.7945 26.3658 40.9637L26.3349 42.7679L26.5171 43.3508L26.7315 43.2061L26.8221 42.7679L26.853 40.8454C26.9053 40.7298 26.9901 40.6305 27.0979 40.5583C27.2058 40.4862 27.3326 40.4441 27.464 40.4367C27.7569 40.3947 28.0539 40.3855 28.349 40.4094C29.0861 40.5045 29.8317 40.5232 30.573 40.4652C31.2397 40.5692 31.9232 40.435 32.4931 40.0884C32.4931 40.0884 32.8588 40.118 32.8588 40.348C32.7956 41.3279 32.7956 42.3106 32.8588 43.2905C32.8588 43.2905 32.8588 47.8335 32.7636 48.1534L32.8255 49.6093C32.8255 49.6093 32.8863 50.2501 31.8213 50.3093C31.8213 50.3093 32.492 50.3969 28.2837 50.2808C27.8004 50.2795 27.3225 50.3782 26.8828 50.57C26.8828 50.57 26.7304 50.5416 26.7304 50.1636C26.8004 49.2614 26.8004 48.3555 26.7304 47.4534L26.6708 45.969L26.3991 46.0007Z" fill="white"/>
<path d="M23.6558 43.9359C23.7022 44.7503 23.7022 45.5666 23.6558 46.381L23.6271 46.8477C23.6887 47.0156 23.7931 47.1663 23.9309 47.2859C23.9309 47.2859 24.0845 47.6923 23.7177 47.6639C23.4041 47.6365 23.0891 47.6262 22.7742 47.6332C22.7742 47.6332 22.3455 47.6332 22.7742 47.1117C22.8918 46.8861 22.9338 46.6314 22.8946 46.3821C22.8946 46.3821 22.8946 43.937 22.9565 43.7924C22.9565 43.7924 23.0173 43.4703 22.8029 43.3827L22.4361 43.4134L21.9775 43.8209C21.9775 43.8209 21.8847 44.2591 21.6714 43.7935V43.5558L21.9477 42.8568L22.1311 42.8262C22.2908 42.9273 22.4644 43.0066 22.647 43.0617H24.0811L24.5981 42.8262C24.5981 42.8262 24.8102 42.8568 24.7529 43.1187C24.7529 43.1187 24.8423 43.7902 24.4456 43.8757C24.3585 43.8357 24.2811 43.7789 24.2183 43.7087C24.1555 43.6385 24.1088 43.5566 24.0811 43.4681C24.0811 43.4681 23.6845 43.2666 23.6524 43.9348" fill="#716F6F"/>
<path d="M30.3898 43.1486C30.2332 43.1355 30.0755 43.1549 29.9275 43.2055C29.7795 43.256 29.6446 43.3365 29.5322 43.4415C29.4197 43.5465 29.3323 43.6734 29.276 43.8136C29.2196 43.9538 29.1956 44.1041 29.2056 44.254C29.2056 44.254 29.0795 45.0712 30.3623 45.5959C30.3623 45.5959 31.308 46.0341 31.245 46.5819C31.245 46.5819 31.1235 47.5678 30.117 47.0781C30.117 47.0781 29.6309 46.8437 29.6584 46.5819C29.6584 46.5819 29.5037 46.2609 29.3214 46.3201C29.3214 46.3201 29.107 46.377 29.2068 47.3389C29.2068 47.3389 29.2068 47.7179 29.6653 47.3389L29.906 47.398C30.0155 47.4853 30.1422 47.5508 30.2785 47.5908C30.4149 47.6307 30.5582 47.6442 30.7001 47.6305C30.8419 47.6169 30.9795 47.5763 31.1048 47.5111C31.2301 47.446 31.3405 47.3576 31.4295 47.2512C31.6404 47.0663 31.7771 46.8168 31.816 46.5458C31.855 46.2748 31.7937 45.9993 31.6428 45.7668C31.3644 45.3878 30.9864 45.0855 30.5468 44.8904C30.1814 44.7342 29.888 44.4562 29.7215 44.1083C29.7367 44.0013 29.781 43.9 29.85 43.8145C29.919 43.729 30.0102 43.6622 30.1146 43.6209C30.2189 43.5795 30.3328 43.5651 30.4449 43.5789C30.5569 43.5927 30.6632 43.6343 30.7532 43.6996C30.8891 43.8623 31.054 44.0006 31.2404 44.1083C31.2404 44.1083 31.4846 44.1083 31.4227 43.5813L31.3653 43.1431C31.3653 43.1431 31.3046 42.8145 30.8758 43.1431C30.8758 43.1431 30.4792 43.2866 30.3875 43.1431" fill="#716F6F"/>
<path d="M26.6727 42.5346C26.8081 42.6466 26.8948 42.8029 26.9157 42.9728C27.3685 44.2133 27.7456 45.4778 28.0449 46.76C28.1562 46.9552 28.3003 47.1318 28.4713 47.2825C28.9895 47.4567 28.4713 47.6013 28.4713 47.6013C28.1663 47.642 27.8562 47.6331 27.5543 47.575C27.1863 47.5126 27.3376 47.3997 27.3376 47.3997C27.4912 47.254 27.3697 46.6701 27.3697 46.6701C27.3052 46.4518 27.2025 46.2455 27.0659 46.0599C26.9444 46.0008 26.73 46.2626 26.73 46.2626C26.73 46.2626 26.3953 46.3798 26.3632 46.2626C26.3311 46.1454 26.1202 46.0336 26.1202 46.0336C25.7545 46.0336 25.6032 46.9024 25.6032 46.9024C25.8152 47.6309 25.6032 47.5136 25.6032 47.5136C25.4209 47.7492 24.8408 47.5761 24.8408 47.5761C24.5669 47.5136 24.7514 47.311 24.7514 47.311C24.8538 47.2856 24.9473 47.2344 25.0219 47.1627C25.0965 47.091 25.1496 47.0015 25.1756 46.9035C25.3292 46.7008 26.3024 42.9148 26.3024 42.9148C26.3964 42.7384 26.4561 42.39 26.6693 42.5357L26.6727 42.5346ZM26.1844 44.4572C26.1523 44.604 25.9379 45.4191 25.9379 45.4191L26.1213 45.7127C26.1213 45.7127 26.6097 45.739 26.7919 45.739C26.9742 45.739 27.0052 45.5965 27.0052 45.4476C26.9151 45.1021 26.803 44.7622 26.6693 44.4298L26.5157 44.2546L26.1844 44.4572Z" fill="#716F6F"/>
<path d="M18.4182 35.4839C18.4182 35.4839 18.0823 36.506 16.584 35.4544L11.4644 35.3371C11.3823 35.3679 11.2938 35.3796 11.2061 35.3714C11.1184 35.3633 11.0339 35.3354 10.9596 35.2901C10.8853 35.2448 10.8233 35.1834 10.7785 35.1109C10.7337 35.0383 10.7075 34.9567 10.7021 34.8727C10.7561 34.3892 10.776 33.9028 10.7617 33.4168C10.7617 33.4168 10.7949 33.0366 10.1231 33.0366C10.1231 33.0366 9.09142 33.156 9.05933 32.2818C9.05933 32.2818 8.87591 31.3474 10.3077 31.3791C10.3077 31.3791 10.7663 31.5818 10.7949 31.0286C10.7949 31.0286 10.733 27.2426 10.7617 26.9501C10.7617 26.9501 10.8866 26.6039 10.1885 26.5447C10.1885 26.5447 9.18199 26.7474 9.06162 26.1065C9.06162 26.1065 8.99971 25.1469 9.66919 25.0877C9.66919 25.0877 10.4923 25.1469 10.6459 24.9453C10.6459 24.9453 10.8293 25.0549 10.7983 24.3581L10.8293 23.1651C10.8293 23.1651 10.921 22.8442 11.4369 22.8737C11.7937 22.906 12.1533 22.8961 12.5076 22.8442C12.607 22.7241 12.6974 22.5974 12.7781 22.4651C12.7781 22.4651 13.2687 22.4377 13.3593 22.5517C13.3593 22.5517 14.0895 23.0205 16.8649 22.8453C16.8649 22.8453 17.289 22.8453 17.3807 22.9625C17.3807 22.9625 17.8977 23.3404 18.2027 22.9318C18.8109 22.8593 19.4249 22.8399 20.0368 22.8737C20.4666 22.9761 20.9142 22.99 21.35 22.9144C21.7858 22.8389 22.1998 22.6757 22.5646 22.4355L22.8993 22.4958C22.8993 22.4958 23.3257 23.1629 23.633 22.9603C23.633 22.9603 24.55 22.8726 24.6991 23.0479C24.9287 23.5427 24.9815 24.0959 24.8492 24.6221C24.8492 24.6221 24.6681 25.1162 25.552 25.1162C25.552 25.1162 26.5562 24.9431 26.4358 25.8425C26.4358 25.8425 26.7109 26.8624 25.0338 26.7189C24.9235 26.8635 24.8594 27.0354 24.8492 27.2141C24.8492 27.2141 24.8194 30.5323 24.7896 30.9136C24.7896 30.9136 24.7598 31.4339 25.4912 31.4076C25.4912 31.4076 26.4668 31.3463 26.4954 32.1942C26.4954 32.1942 26.6169 33.2995 25.2161 33.0947C25.2161 33.0947 24.7885 33.1549 24.7266 33.4157L24.667 34.8716C24.667 34.8716 24.6979 35.6001 23.8416 35.4259C23.7201 35.4259 19.0899 35.5124 18.6922 35.3974C18.6922 35.3974 18.4801 35.3678 18.4193 35.4828" fill="#716F6F"/>
<path d="M18.4183 35.4829C18.4183 35.4829 18.0825 36.5049 16.5842 35.4533L11.4634 35.3361C11.3812 35.3668 11.2927 35.3785 11.2049 35.3703C11.1171 35.3621 11.0326 35.3341 10.9582 35.2887C10.8839 35.2433 10.8218 35.1817 10.7771 35.1091C10.7325 35.0364 10.7064 34.9546 10.7011 34.8705C10.7555 34.387 10.7758 33.9006 10.7618 33.4146C10.7618 33.4146 10.7939 33.0355 10.1222 33.0355C10.1222 33.0355 9.09044 33.1549 9.05834 32.2807C9.05834 32.2807 8.87492 31.3452 10.3079 31.3769C10.3079 31.3769 10.7664 31.5807 10.7939 31.0275C10.7939 31.0275 10.732 27.2404 10.7618 26.9479C10.7618 26.9479 10.8868 26.6006 10.1886 26.5425C10.1886 26.5425 9.18214 26.7452 9.06178 26.1043C9.06178 26.1043 8.99988 25.1447 9.67049 25.0866C9.67049 25.0866 10.4924 25.1447 10.6472 24.9431C10.6472 24.9431 10.8306 25.0527 10.7985 24.3581L10.8306 23.164C10.8306 23.164 10.9212 22.8442 11.4382 22.8737C11.7947 22.9056 12.1539 22.8953 12.5077 22.8431C12.6077 22.7235 12.6985 22.5972 12.7794 22.4651C12.7794 22.4651 13.2689 22.4366 13.3606 22.5517C13.3606 22.5517 14.0897 23.0194 16.8662 22.8442C16.8662 22.8442 17.2903 22.8442 17.382 22.9614C17.382 22.9614 17.899 23.3393 18.204 22.9307C18.8123 22.8585 19.4262 22.8394 20.0381 22.8737C20.4679 22.9757 20.9155 22.9894 21.3512 22.9138C21.7869 22.8383 22.2009 22.6753 22.5659 22.4355L22.9006 22.4947C22.9006 22.4947 23.327 23.1619 23.6331 22.9592C23.6331 22.9592 24.5502 22.8726 24.7015 23.0457C24.9294 23.5409 24.9818 24.0937 24.8505 24.62C24.8505 24.62 24.6683 25.1162 25.5521 25.1162C25.5521 25.1162 26.5586 24.942 26.436 25.8414C26.436 25.8414 26.7111 26.8624 25.0351 26.7178C24.9242 26.8625 24.86 27.035 24.8505 27.2141C24.8505 27.2141 24.8196 30.5323 24.7909 30.9125C24.7909 30.9125 24.76 31.435 25.4914 31.4087C25.4914 31.4087 26.4669 31.3463 26.4967 32.1953C26.4967 32.1953 26.6171 33.3006 25.2162 33.0947C25.2162 33.0947 24.7898 33.156 24.7279 33.4157L24.6671 34.8716C24.6671 34.8716 24.7004 35.6012 23.8429 35.427C23.7214 35.427 19.0901 35.5124 18.6923 35.3974C18.6912 35.3974 18.4791 35.3689 18.4183 35.4829Z" stroke="#716F6F" stroke-width="0.013"/>
<path d="M12.6589 23.4867C12.6589 23.4867 12.7208 24.0684 12.7208 24.213C12.7208 24.3576 12.628 32.6297 12.628 32.6297C12.6503 32.8175 12.6163 33.0075 12.5301 33.1776C12.4438 33.3476 12.3088 33.4908 12.1408 33.5904C12.1408 33.5904 11.9894 33.6496 11.9573 33.2421L12.0192 24.5066C12.0192 24.5066 12.08 23.4276 12.6589 23.4867" fill="white"/>
<path d="M12.6589 23.4837C12.6589 23.4837 12.7197 24.0654 12.7197 24.21C12.7197 24.3546 12.6268 32.6278 12.6268 32.6278C12.6491 32.816 12.615 33.0064 12.5286 33.1768C12.4421 33.3473 12.3069 33.4908 12.1385 33.5907C12.1385 33.5907 11.9872 33.6499 11.9551 33.2423L12.0158 24.5047C12.0158 24.5047 12.0777 23.4256 12.6589 23.4837V23.4837Z" stroke="#716F6F" stroke-width="0.016"/>
<path d="M11.6526 33.6778C11.6526 33.6778 11.7122 25.4616 11.6835 25.3192C11.6549 25.1767 11.7122 25.4375 11.7122 25.4375C11.6544 24.7543 11.7591 24.0674 12.0183 23.4283C12.0183 23.4283 11.8956 22.9332 11.194 23.5434L11.1665 24.7385C11.1665 24.7385 11.1665 25.409 10.5246 25.3794C10.1441 25.3586 9.76743 25.4618 9.45616 25.6719C9.45616 25.6719 9.27389 26.3117 9.97316 26.1966C9.97316 26.1966 11.0725 26.1966 11.1321 26.6348L11.0714 31.0332C11.1089 31.1212 11.1211 31.2172 11.1069 31.3113C11.0926 31.4053 11.0522 31.494 10.9901 31.5682C10.9279 31.6423 10.8461 31.6993 10.7532 31.7331C10.6603 31.7669 10.5596 31.7765 10.4615 31.7606C10.4615 31.7606 9.42979 31.7048 9.45616 32.3161C9.45616 32.3161 9.66938 32.8408 10.5555 32.6644C10.7269 32.6933 10.8821 32.779 10.9938 32.9064C11.1056 33.0339 11.1667 33.1949 11.1665 33.3612V34.4709C11.1665 34.4709 11.1023 34.9091 11.711 34.9354H16.4661C16.4661 34.9354 16.7092 34.965 16.7092 34.6725C16.7092 34.6725 16.6782 34.4424 16.3148 34.4424L12.3541 34.3822C12.3541 34.3822 11.7099 34.5859 11.6514 33.6832" fill="white"/>
<path d="M12.4744 33.7388C12.4744 33.7388 12.354 34.1485 12.8091 34.0587H15.9478L16.8019 34.2329C16.8019 34.2329 17.688 34.0291 16.8019 33.5624C16.8019 33.5624 13.9979 33.5942 13.7537 33.535L13.0533 33.3598C13.0533 33.3598 12.7472 33.2447 12.4801 33.7388" fill="white"/>
<path d="M12.4734 33.7355C12.4734 33.7355 12.353 34.1463 12.8081 34.0554H15.948L16.8032 34.2307C16.8032 34.2307 17.6893 34.028 16.8032 33.5602C16.8032 33.5602 13.998 33.5909 13.7539 33.5307C13.7539 33.5307 13.1807 33.3861 13.0523 33.3576C13.0523 33.3576 12.7462 33.2415 12.4734 33.7355Z" stroke="#716F6F" stroke-width="0.016"/>
<path d="M17.6868 34.1468C17.6868 34.1468 17.1067 34.1468 17.1365 34.8709C17.1548 35.0263 17.2331 35.1695 17.356 35.2727C17.479 35.3758 17.6378 35.4314 17.8014 35.4285C17.9594 35.4009 18.0997 35.3153 18.1923 35.1899C18.2849 35.0646 18.3224 34.9095 18.2967 34.7581C18.2967 34.7581 17.9608 34.0285 17.6868 34.1468Z" fill="white"/>
<path d="M18.1136 33.8515C18.1136 33.8515 18.3864 33.5601 18.5722 33.5601C18.5722 33.5601 21.618 33.823 22.1362 33.4735C22.1362 33.4735 22.5947 33.387 22.7094 33.4735C22.7094 33.4735 23.1679 33.823 23.1679 34.0213C23.1679 34.0213 23.1381 34.2864 22.5947 34.1407C22.5947 34.1407 19.1476 34.1681 18.9665 34.1681C18.9665 34.1681 18.0208 34.3707 18.1125 33.8471" fill="white"/>
<path d="M18.1122 33.852C18.1122 33.852 18.3861 33.5595 18.5707 33.5595C18.5707 33.5595 21.6177 33.8235 22.1359 33.474C22.1359 33.474 22.5944 33.3864 22.7159 33.474C22.7159 33.474 23.1745 33.8235 23.1745 34.0218C23.1745 34.0218 23.1447 34.2869 22.6013 34.1401C22.6013 34.1401 19.1542 34.1685 18.9719 34.1685C18.9719 34.1685 18.0262 34.3712 18.1179 33.8465L18.1122 33.852Z" stroke="#716F6F" stroke-width="0.016"/>
<path d="M18.5999 34.7286C18.5999 34.7286 18.5999 34.4974 19.0241 34.4974L23.2942 34.4667C23.2942 34.4667 23.6886 34.6683 23.6886 33.9716C23.6886 33.9716 23.8445 30.7946 23.8594 27.3011C23.8651 26.2615 23.9133 25.1704 23.8709 24.1582C23.8709 24.1582 23.7803 23.72 23.6588 23.6323C23.6588 23.6323 23.6588 23.1667 24.1792 23.3431C24.1792 23.3431 24.6378 23.3705 24.5128 24.0399L24.5426 25.0598C24.5426 25.0598 24.4521 25.4979 25.274 25.3807C25.274 25.3807 26.0959 25.4969 26.1257 25.7883C26.1257 25.7883 26.3722 26.3721 25.3978 26.313H24.6962C24.6073 26.3678 24.5387 26.448 24.5002 26.5422C24.4618 26.6364 24.4553 26.7398 24.4819 26.8377L24.3913 31.0598C24.3913 31.0598 24.3283 31.7872 25.0619 31.7609C25.0619 31.7609 25.8231 31.7302 25.979 31.9635C25.979 31.9635 26.4995 32.692 25.3703 32.634C25.0825 32.6112 24.7929 32.6402 24.5163 32.7194C24.3574 33.2096 24.2857 33.7217 24.3042 34.2345C24.3042 34.2345 24.3649 35.0506 23.7241 34.9619C23.7241 34.9619 19.4826 35.0189 19.094 34.9323C19.094 34.9323 18.6653 35.0495 18.6056 34.7297" fill="white"/>
<path d="M13.1115 23.2172L13.0232 32.5694C13.0232 32.5694 12.9923 33.0076 13.7535 33.0908C14.1177 33.1357 14.4864 33.1357 14.8505 33.0908C14.8505 33.0908 15.4237 33.0623 16.922 33.1215C16.922 33.1215 17.2877 33.4688 17.3175 33.0349C17.3175 33.0349 17.5617 25.4607 17.4402 23.8898C17.4402 23.8898 17.4104 23.2204 16.8899 23.1909C16.0498 23.2782 15.2023 23.2782 14.3622 23.1909L13.4451 22.9575C13.4451 22.9575 13.0771 22.9849 13.1012 23.2204" fill="white"/>
<path d="M22.7741 23.5722L22.7443 32.7743C22.7443 32.7743 22.9884 33.5916 23.3862 33.505C23.432 33.353 23.462 33.1971 23.4756 33.0394L23.5994 24.2755C23.5994 24.2755 23.2911 22.8733 22.7741 23.5722Z" fill="white" stroke="#716F6F" stroke-width="0.016"/>
<path d="M22.7741 23.5722L22.7443 32.7743C22.7443 32.7743 22.9884 33.5916 23.3862 33.505C23.432 33.353 23.462 33.1971 23.4756 33.0394L23.5994 24.2755C23.5994 24.2755 23.2911 22.8733 22.7741 23.5722Z" stroke="#716F6F" stroke-width="0.016"/>
<path d="M17.9305 23.6552C17.9305 23.6552 17.8388 28.047 17.8617 28.1949L17.8044 31.8944L17.6806 33.1717C17.6806 33.1717 17.8617 33.4379 18.0153 33.2615C18.5346 33.1364 19.0707 33.0872 19.6053 33.1158C19.6053 33.1158 21.5541 33.2911 21.9519 32.9997C21.9519 32.9997 22.2569 33.1443 22.3486 32.6787C22.3486 32.6787 22.4689 24.5261 22.4093 24.3793C22.4635 23.9552 22.4838 23.5279 22.4701 23.1009C22.4701 23.1009 22.4391 22.8357 21.9244 23.068C21.9244 23.068 21.984 23.3035 19.0895 23.2159C19.0895 23.2159 17.9913 23.1852 17.9317 23.6541" fill="white"/>
<path d="M16.9885 26.3449L16.7122 26.9003C16.4575 28.0582 16.1126 29.1963 15.6805 30.3051C15.6805 30.3051 15.6186 30.889 15.1004 30.4223C15.1004 30.4223 13.9105 26.8412 13.8498 26.724L13.4531 26.4621C13.4531 26.4621 13.2124 26.1423 13.6365 26.1138L14.7645 26.1423C14.7645 26.1423 15.1291 26.4326 14.643 26.7568C14.815 27.5195 15.0492 28.2682 15.3435 28.996C15.3435 28.996 15.5257 29.6664 15.7389 29.1702L16.3488 27.1019L16.1654 26.4906C16.1654 26.4906 15.982 26.1992 16.2571 26.1707C16.2571 26.1707 16.8968 26.1127 16.9873 26.3449" fill="#716F6F"/>
<path d="M18.7596 26.8108L18.7263 29.8979L18.6369 30.1301C18.6369 30.1301 18.332 30.5081 18.5463 30.5377C18.5463 30.5377 18.2747 30.7129 20.4951 30.7414C20.4951 30.7414 21.3503 30.886 21.136 29.8376C21.136 29.8376 21.0454 29.4597 20.7382 30.0129C20.7382 30.0129 20.6476 30.4763 19.5528 30.3328C19.4177 30.2205 19.3308 30.0644 19.3087 29.8946V28.6151C19.3087 28.6151 19.2766 28.293 19.7947 28.327C19.7947 28.327 20.3679 28.6753 20.4653 28.5274C20.5224 28.4089 20.552 28.28 20.552 28.1495C20.552 28.019 20.5224 27.8901 20.4653 27.7716C20.4653 27.7716 20.1902 27.7442 20.1604 27.8603C20.1604 27.8603 19.977 28.2076 19.4588 28.0038C19.3231 27.7419 19.2905 27.4421 19.3671 27.1592C19.3671 27.1592 19.3064 26.4307 19.8257 26.4898C19.8257 26.4898 20.4344 26.6049 20.494 26.7823C20.494 26.7823 20.6465 27.1329 20.8012 26.7243L20.6465 26.2269C20.6465 26.2269 20.557 26.0231 20.4046 26.0812C20.4046 26.0812 19.3729 26.2269 19.2445 26.1086L18.4214 26.1973C18.4053 26.2415 18.3989 26.2884 18.4028 26.335C18.4066 26.3817 18.4206 26.427 18.4438 26.4682C18.4669 26.5094 18.4988 26.5456 18.5374 26.5744C18.576 26.6032 18.6204 26.624 18.6679 26.6355C18.6965 26.656 18.7197 26.6827 18.7356 26.7133C18.7515 26.7439 18.7597 26.7777 18.7596 26.8119" fill="#716F6F"/>
</g>
</svg>
