<svg width="196" height="81" viewBox="0 0 196 81" fill="none" xmlns="http://www.w3.org/2000/svg">
<path d="M98.0002 10C92.0667 10 86.2663 11.7595 81.3326 15.056C76.3995 18.3525 72.5541 23.038 70.2835 28.5199C68.0129 34.0018 67.4189 40.0338 68.5766 45.8533C69.7342 51.6728 72.5916 57.0183 76.7873 61.2141C80.983 65.4092 86.3285 68.2663 92.1479 69.4237C97.968 70.5812 104 69.9872 109.481 67.7165C114.963 65.4457 119.649 61.6002 122.945 56.6664C126.241 51.7328 128 45.9325 128 39.9989C127.989 32.0458 124.825 24.4215 119.202 18.798C113.578 13.1743 105.953 10.0104 98.0002 10ZM98.0002 68.6023C92.3432 68.6023 86.8134 66.9245 82.1099 63.7821C77.4064 60.6391 73.7404 56.1721 71.5755 50.9459C69.4107 45.7196 68.8442 39.9688 69.9477 34.4206C71.0512 28.8724 73.7753 23.7761 77.7751 19.776C81.775 15.7758 86.8712 13.0517 92.4196 11.9479C97.9674 10.8442 103.719 11.4104 108.945 13.5751C114.171 15.7397 118.638 19.4055 121.781 24.1089C124.924 28.8123 126.602 34.3421 126.602 39.9989C126.596 47.583 123.582 54.855 118.219 60.2181C112.856 65.581 105.584 68.5963 98.0002 68.6023ZM98.0002 17.4701C93.5443 17.4701 89.1883 18.7916 85.483 21.2672C81.7783 23.7429 78.8901 27.2617 77.185 31.3786C75.4799 35.4954 75.0337 40.0256 75.9031 44.396C76.7726 48.7663 78.9184 52.7808 82.0695 55.9316C85.2206 59.0824 89.2352 61.2282 93.6054 62.0972C97.9761 62.9666 102.506 62.5204 106.623 60.8148C110.74 59.1091 114.258 56.2214 116.734 52.5163C119.209 48.8111 120.53 44.455 120.53 39.9989C120.523 34.0259 118.147 28.2994 113.924 24.076C109.7 19.8525 103.973 17.4768 98.0002 17.4701ZM98.0002 61.1311C93.8209 61.1311 89.7348 59.8919 86.2597 57.5699C82.7852 55.248 80.0764 51.9476 78.4771 48.0863C76.8773 44.225 76.459 39.9761 77.2744 35.8769C78.0899 31.7778 80.1026 28.0125 83.0579 25.0571C86.0132 22.1018 89.7785 20.0892 93.8776 19.2739C97.9767 18.4585 102.226 18.8769 106.087 20.4764C109.948 22.0758 113.248 24.7843 115.57 28.2594C117.892 31.7344 119.132 35.8201 119.132 39.9995C119.13 45.6035 116.903 50.9772 112.94 54.9399C108.978 58.9024 103.604 61.1295 98.0002 61.1317V61.1311ZM83.6595 24.8167V44.0712C83.6595 48.5454 86.0966 52.8596 90.7668 56.6141C92.893 58.358 95.2434 59.809 97.7552 60.9282L98.0351 61.0477L98.3143 60.9282C100.792 59.7675 103.125 58.3193 105.265 56.6141C109.858 52.8989 112.335 48.7043 112.335 44.3901V24.8203L83.6595 24.8167ZM110.903 26.2149V36.601H85.0575V26.2185L110.903 26.2149ZM104.831 51.7408H103.792C102.794 51.7009 102.155 51.6608 101.516 51.5808C100.8 51.4954 100.079 51.4556 99.3583 51.4613C99.0671 51.4565 98.7796 51.5251 98.5222 51.6608V41.2783C98.646 41.2038 98.7807 41.1497 98.922 41.1182C99.3573 41.0461 99.8007 41.0326 100.24 41.0782L101.438 41.1977C102.034 41.2855 102.634 41.3389 103.236 41.3577H104.834L104.831 51.7408ZM97.3609 51.6214C97.1345 51.5223 96.8912 51.4682 96.6441 51.4619C95.9236 51.4573 95.2031 51.4972 94.4869 51.5814C93.8481 51.6614 93.169 51.7008 92.2101 51.7414H91.1688V41.3183H92.767C93.3687 41.2978 93.9687 41.2443 94.5649 41.1583L95.7234 41.0388C96.1756 40.9923 96.6327 41.0057 97.0816 41.0788C97.1907 41.112 97.2971 41.1519 97.4012 41.1983L97.3609 51.6214ZM85.057 44.0712V38.0028H97.3609V39.76C96.7827 39.6456 96.1898 39.6186 95.6034 39.68L94.405 39.7995C93.7663 39.8795 93.2072 39.9189 92.6874 39.9589H89.7316V41.7968H88.3734V43.4745H89.7316V45.6731H88.3734V47.3508H89.7316V49.1086H88.3734V50.7864H89.7316V53.0632L90.4107 53.1032C90.4505 53.1032 91.2468 53.1433 92.2085 53.1433C93.247 53.1032 93.9261 53.0632 94.6052 52.9832C95.2445 52.9432 95.8434 52.8637 96.6027 52.8637C96.8416 52.8637 96.9223 52.9438 97.0423 53.1433C97.1383 53.2597 97.2452 53.3667 97.3614 53.4628V59.1751C94.3658 57.6577 85.0575 52.3065 85.0575 44.0754L85.057 44.0712ZM98.5216 59.2548V53.4222C98.6378 53.3261 98.7452 53.2191 98.8413 53.1026C98.8914 53.0109 98.9672 52.9357 99.0594 52.8861C99.1516 52.8365 99.2558 52.8146 99.36 52.8231C100.028 52.8182 100.695 52.858 101.357 52.9426C101.997 53.0226 102.716 53.062 103.754 53.1026C104.354 53.1281 104.954 53.1147 105.552 53.0626L106.231 53.0226V51.1083H107.469V49.4306H106.227V47.6728H107.545V45.995H106.227V43.7982H107.464V42.1205H106.227V39.8795H103.311C102.749 39.8586 102.189 39.8054 101.633 39.72L100.435 39.6005C99.8482 39.5346 99.2547 39.5616 98.6771 39.6806C98.6552 39.678 98.6334 39.6802 98.6127 39.6872C98.592 39.6941 98.5729 39.7055 98.5576 39.7206V37.9628H110.945V44.4343C110.903 52.3835 101.396 57.8164 98.5216 59.2548ZM88.8147 34.3278C89.8134 34.9669 91.2518 35.8461 91.2916 35.8855L91.6499 36.085L92.0083 35.8855C92.0885 35.8455 93.6861 34.9669 94.6445 34.3278C94.987 34.1586 95.281 33.9047 95.4976 33.59C95.7141 33.2753 95.8472 32.9103 95.8827 32.5299V26.8976H87.4941V32.5299C87.5743 32.9057 87.7336 33.2601 87.961 33.5699C88.1879 33.8798 88.4781 34.1381 88.8125 34.3278H88.8147ZM94.4885 32.4105C94.4885 32.7301 94.0892 33.0078 93.8912 33.1272C93.2121 33.5669 92.2139 34.1659 91.6947 34.4454C91.2168 34.1259 90.2563 33.5669 89.5772 33.1272C89.0994 32.7689 88.8981 32.5299 88.8981 32.4105V30.8922H94.4907V31.1311C94.5354 31.5565 94.5332 31.9855 94.4852 32.4105H94.4885ZM94.4885 28.2958V29.494H88.9341V28.2958H94.4885ZM101.759 34.2877C102.758 34.9268 104.196 35.8054 104.236 35.8454L104.594 36.0449L104.953 35.8454C105.033 35.8054 106.63 34.9268 107.589 34.2877C107.931 34.1186 108.225 33.8646 108.442 33.5499C108.658 33.2353 108.791 32.8704 108.827 32.49V26.8588H100.437V32.5329C100.525 32.9003 100.687 33.2456 100.913 33.5475C101.14 33.8493 101.427 34.1014 101.755 34.2877H101.759ZM107.471 32.4499C107.471 32.7295 107.072 33.009 106.874 33.129C106.195 33.5687 105.196 34.1677 104.677 34.4472C104.199 34.1277 103.239 33.5687 102.6 33.129C102.122 32.7707 101.921 32.5317 101.921 32.4123V32.2523C101.921 32.2523 104.078 30.6945 104.677 30.2549C105.196 30.6133 106.954 31.7726 107.513 32.1322C107.526 32.2404 107.512 32.3499 107.474 32.4517L107.471 32.4499ZM101.879 28.2553H107.471V30.452L104.595 28.5748L104.237 28.8943L101.88 30.6121V28.2553H101.879ZM101.759 42.6359L103.517 42.6759V43.4351L101.759 43.3951C101.426 43.3851 101.092 43.3584 100.761 43.315L100.163 43.235H99.8356L99.7958 42.5182H100.195L100.792 42.5983C101.196 42.5971 101.516 42.6365 101.755 42.6365L101.759 42.6359ZM101.759 44.9127L103.517 44.9528V45.7119L101.759 45.6719C101.426 45.662 101.092 45.6353 100.761 45.5918L100.163 45.5118H99.8356L99.7958 44.7951H100.195L100.792 44.8751C101.192 44.8751 101.509 44.9151 101.751 44.9151L101.759 44.9127ZM99.882 47.7492L99.8422 46.9901H100.242L100.881 47.0701C101.239 47.1102 101.52 47.1502 101.759 47.1502L102.596 47.1902L103.554 47.2302V47.9893L102.596 47.9493L101.759 47.9093C101.439 47.8992 101.119 47.8725 100.801 47.8293L100.162 47.7492H99.882ZM101.759 49.387L103.517 49.427V50.1861L101.759 50.1461C101.439 50.136 101.119 50.1093 100.801 50.0661C100.801 50.0661 100.204 49.986 100.162 49.986H99.8356L99.7958 49.2269H100.195L100.834 49.3069C101.196 49.3475 101.516 49.3876 101.755 49.3876L101.759 49.387ZM92.4119 43.3951V42.6359L94.1699 42.5959C94.4492 42.5959 94.729 42.5559 95.1283 42.5159L95.6874 42.4358H96.0458V43.195H95.7261L95.167 43.275C94.836 43.3184 94.5027 43.3452 94.1689 43.355L92.4119 43.3951ZM95.6874 44.7533H96.0458V45.5124H95.7261L95.2074 45.5924C94.8758 45.6359 94.5425 45.6626 94.2087 45.6725L92.4507 45.7125L92.4109 44.9958L94.1689 44.9558C94.4481 44.9558 94.7274 44.9157 95.1272 44.8757C95.0874 44.7957 95.6863 44.7563 95.6863 44.7563L95.6874 44.7533ZM95.6874 46.9901H96.0458V47.7492H95.7261L95.1289 47.8293C94.8109 47.8725 94.4912 47.8992 94.1705 47.9093H93.9709L92.3732 47.9493V47.1902L93.9709 47.1502H94.1705C94.4776 47.14 94.7847 47.1132 95.089 47.0701L95.6874 46.9901ZM95.6874 49.2669H96.0458V50.0261H95.7261L95.167 50.1061C94.836 50.1495 94.5027 50.1762 94.1689 50.1861H94.0085L92.4905 50.2262V49.467L94.0085 49.427H94.2883C94.5676 49.427 94.8469 49.387 95.2467 49.3469C95.1272 49.2669 95.6863 49.2669 95.6863 49.2669H95.6874ZM94.4094 15.3922L94.1705 12.8359L94.9696 12.7559L95.1692 15.1127C95.2489 15.7918 95.4889 16.2314 96.0878 16.1514C96.6851 16.1114 96.8869 15.6323 96.8045 14.9532L96.6049 12.5964L97.404 12.5164L97.6429 15.0727C97.7231 16.1514 97.1651 16.6704 96.1249 16.7505C95.1245 16.8711 94.4852 16.4315 94.405 15.391L94.4094 15.3922ZM82.225 22.6623L79.6679 19.5463L81.4657 18.068L81.865 18.5459L80.6672 19.5445L81.3064 20.3437L82.3848 19.4251L82.7846 19.9029L81.7057 20.8215L82.4224 21.7001L83.6208 20.7014L84.0201 21.1793L82.225 22.6623ZM89.1354 18.3482L87.7772 14.553L88.5365 14.2735L89.695 17.4695L91.1732 16.9505L91.4121 17.5478L89.1354 18.3482ZM100.401 16.7104L99.6414 16.591L100.161 12.5964L101.16 12.7158L102.238 15.9113L102.638 12.9153L103.397 13.0348L102.878 17.0294L101.879 16.9099L100.801 13.7139L100.401 16.7104ZM78.7455 26.5004L75.6697 23.9441L76.309 23.185L79.5844 23.9441L77.2275 22.0268L77.7053 21.4295L80.7812 23.9859L80.1419 24.745L76.8664 23.9859L79.2233 25.9031L78.7455 26.5004ZM76.8282 29.7359L75.35 28.9367L75.4695 28.6978C75.512 28.5709 75.6037 28.466 75.7231 28.4062C75.8431 28.3463 75.9817 28.3362 76.1088 28.3782L77.4266 28.5778L77.8264 27.7786L76.1093 27.5756C75.9097 27.5756 75.6697 27.5756 75.5502 27.775C75.6386 27.5625 75.6419 27.3243 75.5595 27.1094C75.4771 26.8944 75.3157 26.7193 75.1084 26.6199C74.1097 26.1009 73.67 26.9782 73.2702 27.7386L72.8708 28.4978L76.4257 30.375L76.8282 29.7359ZM74.9109 28.4177L74.7915 28.6566L73.8331 28.1376L73.9526 27.8987C74.1522 27.5403 74.3519 27.1819 74.8313 27.4208C75.271 27.6167 75.0708 28.0534 74.9109 28.4159V28.4177ZM119.532 30.7746L123.287 29.2168L123.607 29.976L119.852 31.4937L119.532 30.7746ZM105.471 17.7539L104.712 17.515L105.91 13.6798L106.669 13.9187L105.471 17.7539ZM123.927 33.2533L123.648 32.1746L124.245 32.0145L125.004 35.0105L124.406 35.1706L124.127 34.0919L120.812 34.928L120.612 34.1289L123.927 33.2533ZM123.008 38.4466L125.405 36.8489L125.445 37.8075L123.768 38.8462L125.485 39.7248L125.525 40.561L123.008 39.2828L121.411 39.3628L121.37 38.5637L123.008 38.4466ZM119.293 27.9405C119.972 27.5821 118.815 26.2227 119.932 25.5436C120.081 25.4521 120.249 25.3938 120.422 25.3727C120.596 25.3515 120.772 25.368 120.939 25.4211C121.106 25.4741 121.259 25.5624 121.389 25.68C121.519 25.7976 121.621 25.9418 121.69 26.1027C121.878 26.3779 122 26.6919 122.048 27.0213L121.451 27.3008C121.412 27.0184 121.317 26.7466 121.172 26.5016C121.14 26.4285 121.094 26.3627 121.036 26.3084C120.978 26.2541 120.909 26.2125 120.834 26.1862C120.758 26.1599 120.679 26.1496 120.599 26.1557C120.52 26.1619 120.442 26.1845 120.373 26.2221C119.775 26.5805 120.891 27.9399 119.733 28.619C118.974 29.0586 118.335 28.659 117.936 27.9399C117.741 27.6536 117.618 27.3248 117.577 26.9812L118.256 26.6617C118.255 26.9835 118.338 27.3 118.495 27.5803C118.656 27.8192 118.973 28.0994 119.294 27.9387L119.293 27.9405ZM115.219 24.1054L116.457 23.0267L116.617 23.2261C116.856 23.5057 116.816 23.6257 116.657 23.9052L116.018 25.1034L116.615 25.7825L117.374 24.2648C117.429 24.176 117.462 24.0752 117.468 23.9711C117.475 23.867 117.457 23.7628 117.414 23.6675C117.579 23.8307 117.801 23.9222 118.033 23.9222C118.265 23.9222 118.488 23.8307 118.652 23.6675C119.488 22.9084 118.813 22.1893 118.252 21.5102L117.694 20.8711L114.618 23.5475L115.219 24.1054ZM117.735 21.8285L117.935 22.028C118.214 22.3476 118.454 22.7071 118.095 23.0267C117.736 23.385 117.378 23.0667 117.097 22.7471L116.897 22.5476L117.735 21.8285ZM109.027 19.3116L108.148 18.872L108.746 14.6379L109.505 14.9962L108.986 18.2717L111.343 15.8748L112.059 16.2332L109.027 19.3116ZM111.504 20.8298L113.981 17.6738L115.819 19.1121L115.46 19.5899L114.262 18.6313L113.665 19.4305L114.784 20.309L114.426 20.7869L113.307 19.9083L112.59 20.8269L113.828 21.8255L113.47 22.3033L111.504 20.8298ZM85.6188 20.1507L83.6612 16.5958L84.3779 16.2374L86.0557 19.2333L87.4139 18.4742L87.7336 19.0333L85.6188 20.1507ZM107.23 65.1708L107.51 65.9301L106.75 66.2094L106.471 65.4501L107.23 65.1708ZM102.277 63.2535L101.597 67.5277L102.434 67.3281L102.594 66.3294L104.192 65.971L104.711 66.8072L105.59 66.6075L103.193 62.9726L102.277 63.2535ZM102.635 65.7304L102.874 64.0128L103.792 65.5303L102.635 65.7304ZM119.932 54.6651C119.744 54.5188 119.512 54.4394 119.273 54.4394C119.035 54.4394 118.803 54.5188 118.614 54.6651C118.67 54.4702 118.666 54.2627 118.603 54.0701C118.538 53.8775 118.418 53.7088 118.256 53.5864C117.736 53.1868 117.097 53.5064 116.658 54.0643C116.218 54.6615 116.18 55.3025 116.778 55.742C116.944 55.869 117.147 55.9377 117.357 55.9377C117.566 55.9377 117.77 55.869 117.936 55.742C117.861 55.9478 117.856 56.1724 117.921 56.3816C117.985 56.5908 118.117 56.7731 118.294 56.9007C118.934 57.3786 119.613 57.1002 120.052 56.4612C120.53 55.8191 120.61 55.14 119.931 54.6609L119.932 54.6651ZM118.135 54.904C117.855 55.0635 117.537 55.2624 117.256 55.0635C117.197 55.0206 117.148 54.9651 117.114 54.901C117.079 54.8371 117.06 54.7662 117.056 54.6934C117.052 54.6208 117.064 54.5481 117.092 54.4808C117.12 54.4136 117.162 54.3532 117.216 54.3044C117.252 54.2452 117.3 54.1945 117.357 54.1556C117.414 54.1168 117.478 54.0908 117.547 54.0795C117.615 54.0681 117.685 54.0716 117.751 54.0898C117.818 54.1081 117.88 54.1405 117.933 54.1849C118.089 54.3887 118.161 54.645 118.134 54.9004L118.135 54.904ZM119.613 56.1022C119.569 56.1687 119.513 56.2259 119.447 56.2701C119.381 56.3144 119.307 56.3449 119.229 56.3599C119.151 56.3748 119.07 56.3739 118.993 56.3571C118.915 56.3403 118.842 56.3081 118.777 56.2622C118.654 56.1741 118.564 56.0479 118.521 55.9034C118.478 55.7588 118.484 55.604 118.538 55.4631C118.857 55.2636 119.176 55.1047 119.536 55.3436C119.643 55.4356 119.712 55.5654 119.725 55.706C119.739 55.8467 119.698 55.9873 119.612 56.0986L119.613 56.1022ZM95.9629 63.6512L94.884 63.571L94.645 67.6057L95.724 67.6859C96.9621 67.7661 98.0809 67.3663 98.1611 65.8084C98.2827 64.1683 97.1618 63.6888 95.9629 63.6512ZM97.3211 65.7283C97.3222 65.9088 97.2856 66.0872 97.2147 66.253C97.1438 66.4188 97.0396 66.5677 96.9087 66.6915C96.7772 66.8154 96.6223 66.9103 96.4527 66.9714C96.283 67.0325 96.1025 67.0581 95.9231 67.0466L95.4834 67.0068L95.6432 64.2501L96.0829 64.2904C96.2601 64.2981 96.4341 64.3417 96.5945 64.4192C96.7543 64.4966 96.8967 64.6057 97.0123 64.7404C97.1285 64.8752 97.2158 65.0317 97.2687 65.2014C97.3216 65.371 97.3396 65.5494 97.3211 65.7261V65.7283ZM72.7538 35.167C73.0062 35.2748 73.28 35.3256 73.5544 35.3156C73.8288 35.3057 74.0977 35.2352 74.342 35.1093C74.5864 34.9834 74.7997 34.8051 74.9671 34.5872C75.134 34.3693 75.2513 34.1172 75.3102 33.8487C75.6686 32.6506 74.9906 31.7314 73.832 31.4119C73.5817 31.3083 73.3111 31.261 73.0406 31.2732C72.77 31.2855 72.5053 31.357 72.2653 31.4827C72.0253 31.6084 71.8157 31.7853 71.6515 32.0008C71.4873 32.2163 71.3724 32.4653 71.3149 32.7301C70.9165 33.9282 71.5951 34.8474 72.7538 35.167ZM71.9176 32.8901C72.1565 32.131 72.956 32.0115 73.6351 32.211C74.3519 32.4105 74.9535 32.8901 74.714 33.6893C74.4746 34.4885 73.6755 34.5679 72.9964 34.3684C72.2742 34.1683 71.6751 33.6487 71.9152 32.8913L71.9176 32.8901ZM108.471 61.0924L107.473 61.6117L109.39 65.1664L110.389 64.6477C111.467 64.0504 112.226 63.169 111.467 61.7715C110.708 60.3741 109.545 60.5328 108.466 61.0924H108.471ZM110.189 64.0483L109.789 64.2872L108.471 61.8904L108.871 61.6515C109.187 61.495 109.551 61.4661 109.888 61.5719C110.225 61.6772 110.508 61.909 110.678 62.2182C110.848 62.5275 110.893 62.8908 110.801 63.2317C110.71 63.5726 110.491 63.8655 110.189 64.0483ZM90.8148 62.6099L93.1319 63.2072L92.9716 63.8044L91.4536 63.4052L91.1738 64.4039L92.5723 64.7623L92.4119 65.3595L91.0139 65.0012L90.6943 66.0795L92.2521 66.4794L92.0918 67.0766L89.7752 66.4794L90.8148 62.6099ZM113.305 61.9308L113.744 62.6099L113.065 63.0495L112.625 62.3704L113.305 61.9308ZM114.823 56.3387L117.66 59.2144L117.1 59.7735L114.904 57.5366L114.784 58.4153L114.145 58.3351L114.345 56.8171L114.823 56.3387ZM73.1131 46.8312L71.3955 47.309L71.1566 46.5099L75.0309 45.3912L75.6282 47.5486L75.0309 47.748L74.6317 46.3498L73.6728 46.6294L74.0311 47.9475L73.4338 48.147L73.1131 46.8312ZM124.405 47.9099C124.317 48.2146 124.197 48.5092 124.047 48.7885L123.368 48.5496C123.585 48.3683 123.727 48.1129 123.768 47.8329C123.814 47.7367 123.84 47.6318 123.842 47.5251C123.845 47.4183 123.825 47.3122 123.783 47.2138C123.741 47.1155 123.679 47.0272 123.601 46.9548C123.522 46.8824 123.429 46.8277 123.328 46.7942C122.85 46.6341 122.529 47.0331 122.369 47.4733C122.291 47.7042 122.251 47.9463 122.25 48.19L120.172 47.551L120.852 45.3141L121.411 45.5136L120.971 47.0319L121.807 47.3114C121.815 47.1885 121.842 47.0675 121.887 46.953C121.927 46.7819 122.003 46.6211 122.11 46.4816C122.217 46.342 122.353 46.2269 122.508 46.1437C122.662 46.0606 122.833 46.0115 123.009 45.9995C123.184 45.9876 123.36 46.0131 123.525 46.0745C124.242 46.2346 124.644 46.9531 124.404 47.9123L124.405 47.9099ZM72.3548 40.0802C72.0605 40.0881 71.768 40.0312 71.4982 39.9135C71.2283 39.7958 70.9877 39.6201 70.7933 39.399C70.5989 39.178 70.4555 38.9169 70.3733 38.6342C70.291 38.3515 70.272 38.0542 70.3175 37.7633C70.3259 37.4429 70.4077 37.1286 70.5563 36.8447L71.2355 36.9642C71.0604 37.2085 70.963 37.4999 70.9559 37.8004C70.9471 37.9882 70.9769 38.1759 71.0435 38.3517C71.1101 38.5276 71.2121 38.6879 71.3432 38.8227C71.4742 38.9575 71.6316 39.064 71.8055 39.1355C71.9794 39.2071 72.1662 39.2422 72.3542 39.2386C72.5371 39.2698 72.7246 39.2615 72.9041 39.2142C73.0837 39.167 73.2511 39.0818 73.3946 38.9645C73.5386 38.8473 73.6553 38.7005 73.7382 38.5342C73.8206 38.3679 73.8664 38.186 73.8724 38.0004C73.9002 37.7023 73.8599 37.4017 73.7529 37.1219H74.432C74.4784 37.426 74.5051 37.7328 74.5122 38.0405C74.4315 39.321 73.7126 40.2002 72.3542 40.0802H72.3548ZM76.9886 50.3862C76.8806 50.1386 76.7219 49.9167 76.5217 49.7352C76.3215 49.5538 76.0853 49.417 75.8284 49.3339C75.5715 49.2508 75.2999 49.2233 75.0315 49.2533C74.7631 49.2832 74.5046 49.3699 74.2722 49.5076C73.1933 50.0267 72.6743 51.0653 73.2331 52.184C73.3444 52.4336 73.508 52.6564 73.7131 52.8373C73.9177 53.0181 74.1593 53.1527 74.4206 53.2321C74.6819 53.3114 74.9573 53.3335 75.2284 53.297C75.499 53.2604 75.7586 53.166 75.9899 53.0202C76.2446 52.9335 76.477 52.7915 76.6706 52.6045C76.8642 52.4175 77.0137 52.19 77.1091 51.9384C77.2046 51.6867 77.2433 51.4171 77.2226 51.1488C77.2019 50.8804 77.1217 50.6201 76.9886 50.3862ZM75.6304 52.3435C74.9911 52.7019 74.192 52.7019 73.8326 51.9851C73.4731 51.2684 73.9924 50.6669 74.6688 50.3074C75.3075 49.9878 76.1071 49.949 76.4262 50.6657C76.4857 50.8282 76.5119 51.0008 76.5037 51.1734C76.496 51.3461 76.4535 51.5155 76.3793 51.6717C76.3051 51.8279 76.201 51.9678 76.0722 52.0832C75.9435 52.1986 75.793 52.2873 75.6299 52.3441L75.6304 52.3435ZM121.929 50.4262C121.795 50.333 121.641 50.271 121.48 50.2447C121.318 50.2184 121.153 50.2286 120.996 50.2743C120.839 50.3201 120.694 50.4004 120.572 50.5094C120.451 50.6183 120.355 50.7532 120.291 50.904C120.213 51.0372 120.171 51.1889 120.171 51.3434C120.171 51.4979 120.213 51.6495 120.291 51.7827C119.772 51.4631 119.253 50.9835 119.612 50.3844C119.715 50.1677 119.865 49.9767 120.052 49.8254L119.532 49.467C119.317 49.6482 119.152 49.8822 119.054 50.1461C118.495 51.3048 119.413 52.1834 120.373 52.6231C121.209 53.0226 122.13 53.2203 122.689 52.2646C122.779 52.097 122.83 51.9116 122.84 51.7216C122.85 51.5317 122.817 51.3419 122.744 51.1662C122.672 50.9904 122.561 50.8329 122.42 50.7051C122.28 50.5772 122.112 50.4822 121.93 50.4268L121.929 50.4262ZM122.089 51.9839C121.89 52.3423 121.53 52.3423 121.171 52.1834C120.812 51.9839 120.573 51.7056 120.731 51.3472C120.93 50.9889 121.29 50.9889 121.65 51.1872C122.008 51.3472 122.288 51.665 122.089 51.9845L122.089 51.9839ZM80.7441 56.1386L78.7068 57.7766C77.8706 58.4557 77.1091 58.2544 76.4699 57.418C75.8311 56.6189 75.7908 55.8203 76.6695 55.1812L78.7068 53.5834L79.1846 54.2226L77.3868 55.6608C76.868 56.0604 76.6275 56.5394 77.0284 57.019C77.3868 57.4968 77.9071 57.3774 78.427 56.979L80.2248 55.5007L80.7441 56.1386ZM87.0954 61.0122L86.0972 60.5344L84.2994 64.1699L85.2981 64.6477C86.3765 65.2063 87.5748 65.3268 88.2937 63.8884C88.9728 62.4501 88.1743 61.6117 87.0954 61.0122ZM87.4952 63.5295C87.4259 63.6953 87.3228 63.8448 87.1925 63.9681C87.0621 64.0919 86.9072 64.1868 86.7376 64.2468C86.5685 64.3068 86.3885 64.3308 86.2096 64.3177C86.0301 64.3041 85.8555 64.2533 85.6974 64.1683L85.2981 63.9692L86.5357 61.4922L86.9356 61.6913C87.0976 61.771 87.2416 61.8828 87.3583 62.0202C87.4756 62.1577 87.5628 62.3175 87.6152 62.4899C87.6676 62.6628 87.6839 62.8444 87.6632 63.0233C87.6419 63.2028 87.5846 63.3757 87.4941 63.5317L87.4952 63.5295ZM84.5792 59.575L82.0232 62.6906L81.2639 62.0933L81.9806 58.7781L80.0633 61.135L79.4661 60.6571L82.0221 57.541L82.7813 58.1802L82.0646 61.4955L83.9819 59.1386L84.5792 59.575Z" fill="white"/>
</svg>
