<svg width="196" height="81" viewBox="0 0 196 81" fill="none" xmlns="http://www.w3.org/2000/svg">
<path d="M84.1805 45.3989C82.213 42.6707 79.9649 41.5489 79.9649 41.5489C77.7382 40.2357 74.602 40.3632 74.602 40.3632C73.9646 41.8208 72.5028 42.8407 70.8072 42.8407C70.1783 42.8407 69.5791 42.7005 69.0437 42.4498C66.6129 45.6284 66.8509 48.2759 66.8679 48.4501C67.0081 52.5339 70.9559 60.948 86.7515 60.9735C86.7939 60.6378 88.1028 50.5409 84.1805 45.3989Z" fill="white"/>
<path d="M71.3894 24.0411C66.9954 19.7575 58.8788 18.1767 48.4504 22.8087C48.4759 22.9277 51.5908 36.1565 65.5718 38.26L65.6101 38.2643C65.9203 38.2813 66.2772 38.311 66.6682 38.3577C66.6682 38.3577 66.6682 38.3577 66.6682 38.362C66.8382 36.233 68.6272 34.5544 70.803 34.5544C71.2577 34.5544 71.7549 34.6309 72.1841 34.7796C76.2041 28.6433 71.8824 24.483 71.3894 24.0411Z" fill="white"/>
<path d="M69.0394 42.4461C67.6286 41.7874 66.6512 40.3554 66.6512 38.6895C66.6512 38.5876 66.6597 38.4686 66.6682 38.3538C65.4273 38.2093 64.5137 38.2306 64.5137 38.2306C60.0602 38.2136 56.0019 40.3554 54.3743 41.6727C48.5142 46.2665 48 53.7881 48 53.7881C48.3102 53.8264 58.6876 55.2117 64.9896 48.9692C65.6016 48.3657 66.222 47.5923 66.7149 46.8146C66.7149 46.8146 66.8807 46.5512 67.1526 46.105C67.1526 46.105 67.1526 46.105 67.1526 46.1007C67.4416 45.0851 67.9941 43.8145 69.0394 42.4461Z" fill="white"/>
<path d="M137.312 29.6683C134.244 29.6683 131.652 30.9644 130.092 33.0339V32.0183C130.092 30.7264 129.022 29.6641 127.73 29.6641C126.438 29.6641 125.367 30.7222 125.367 32.0183V58.5779C125.367 59.8952 126.455 60.9704 127.768 60.9704C129.085 60.9704 130.169 59.8952 130.169 58.5779V49.2289C132.073 51.3919 134.843 52.3438 137.397 52.3438C142.765 52.3438 148 48.362 148 40.9636C148.004 33.4334 142.42 29.6683 137.312 29.6683ZM136.794 47.971C133.505 47.971 130.173 45.5913 130.173 40.8743C130.173 36.2423 133.462 33.9518 136.751 33.9518C139.998 33.9518 143.245 36.2041 143.245 40.9211C143.24 45.5913 140.083 47.971 136.794 47.971Z" fill="white"/>
<path d="M109.835 52.3436C112.903 52.3436 115.495 51.0475 117.055 48.9779V49.9936C117.055 51.2854 118.126 52.3478 119.418 52.3478C120.709 52.3478 121.78 51.2897 121.78 49.9936V23.434C121.78 22.1166 120.692 21.0415 119.379 21.0415C118.062 21.0415 116.978 22.1166 116.978 23.434V32.783C115.075 30.6199 112.304 29.6681 109.75 29.6681C104.383 29.6681 99.1473 33.6499 99.1473 41.0483C99.143 48.5785 104.727 52.3436 109.835 52.3436ZM110.353 34.0366C113.642 34.0366 116.974 36.4163 116.974 41.1333C116.974 45.7653 113.685 48.0558 110.396 48.0558C107.149 48.0558 103.903 45.8035 103.903 41.0865C103.907 36.4163 107.064 34.0366 110.353 34.0366Z" fill="white"/>
<path d="M93.9331 20C91.9869 20 90.5123 21.4703 90.5123 23.4209C90.5123 25.3714 91.9826 26.8417 93.9331 26.8417C95.8837 26.8417 97.3965 25.3714 97.3965 23.4209C97.3965 21.4703 95.8794 20 93.9331 20Z" fill="white"/>
<path d="M93.9332 29.668C92.6158 29.668 91.5322 30.7431 91.5322 32.0605V49.951V50.0317H91.5364C91.5789 51.3108 92.6455 52.3435 93.9332 52.3435C95.2208 52.3435 96.2874 51.3108 96.3299 50.0317H96.3341V49.9552V49.951V43.0497V38.099V32.0562C96.3341 30.7431 95.2463 29.668 93.9332 29.668Z" fill="white"/>
</svg>
