<svg width="196" height="81" viewBox="0 0 196 81" fill="none" xmlns="http://www.w3.org/2000/svg">
<path d="M79.7175 51.3154V52.3623H77.9466V57.232H76.7023V52.3623H74.9257V51.3154H79.7175Z" fill="white"/>
<path d="M82.3454 52.9384C82.6504 53.076 82.9018 53.2914 83.1019 53.5845C83.2813 53.8447 83.3983 54.1468 83.4519 54.4879C83.4819 54.6882 83.4969 54.9784 83.4906 55.3551H80.3024C80.3202 55.7951 80.473 56.103 80.7602 56.2795C80.9332 56.3902 81.146 56.4438 81.3911 56.4438C81.6511 56.4438 81.8639 56.3781 82.0253 56.2437C82.1148 56.1717 82.1926 56.0701 82.2617 55.9415H83.4283C83.3983 56.2016 83.2547 56.4651 83.0033 56.731C82.6112 57.1559 82.064 57.3682 81.3582 57.3682C80.7747 57.3682 80.2632 57.1888 79.818 56.8301C79.3722 56.4709 79.1508 55.8879 79.1508 55.0771C79.1508 54.3203 79.351 53.7371 79.7517 53.3333C80.153 52.9295 80.6761 52.7261 81.3161 52.7261C81.699 52.7351 82.0432 52.8039 82.3454 52.9384ZM80.6345 53.9285C80.473 54.096 80.371 54.3203 80.3294 54.6045H82.3004C82.2796 54.2994 82.1776 54.0691 81.9954 53.9135C81.8126 53.755 81.5854 53.6772 81.3161 53.6772C81.0261 53.6772 80.7988 53.761 80.6345 53.9285Z" fill="white"/>
<path d="M84.7065 55.8308C84.7302 56.0344 84.7843 56.1779 84.865 56.2645C85.0086 56.4172 85.2716 56.4917 85.6545 56.4917C85.8788 56.4917 86.0582 56.4588 86.193 56.3902C86.3274 56.3244 86.3932 56.2229 86.3932 56.088C86.3932 55.9594 86.3395 55.8608 86.2317 55.7951C86.1239 55.7293 85.726 55.6123 85.0352 55.4509C84.5387 55.3286 84.1887 55.1728 83.9857 54.9903C83.7821 54.8079 83.6801 54.5477 83.6801 54.2037C83.6801 53.7999 83.8387 53.4529 84.1558 53.1628C84.473 52.8727 84.9216 52.7261 85.4959 52.7261C86.0432 52.7261 86.4889 52.8337 86.8331 53.0521C87.1768 53.2705 87.3746 53.6474 87.4253 54.1828H86.2825C86.2675 54.0362 86.2259 53.9195 86.1568 53.8328C86.0316 53.6772 85.816 53.5995 85.5138 53.5995C85.2658 53.5995 85.086 53.6384 84.9815 53.7161C84.8766 53.7939 84.823 53.8837 84.823 53.9883C84.823 54.1199 84.88 54.2156 84.9936 54.2725C85.1072 54.3353 85.5051 54.44 86.1868 54.5895C86.6417 54.6972 86.9854 54.8587 87.2131 55.0741C87.4374 55.2924 87.551 55.5678 87.551 55.8966C87.551 56.3302 87.3895 56.6831 87.0661 56.9587C86.7432 57.2338 86.2438 57.3711 85.568 57.3711C84.88 57.3711 84.3715 57.2246 84.0422 56.9345C83.713 56.6445 83.5486 56.2737 83.5486 55.825H84.7065V55.8308Z" fill="white"/>
<path d="M87.6979 53.7092V52.8957H88.308V51.6753H89.4383V52.8957H90.1504V53.7092H89.4383V56.0212C89.4383 56.201 89.4625 56.3117 89.5074 56.3562C89.5524 56.4012 89.6926 56.422 89.9261 56.422C89.9619 56.422 89.9976 56.4219 90.0368 56.419C90.0755 56.419 90.1146 56.4161 90.1504 56.4132V57.2684L89.609 57.2897C89.0675 57.3076 88.6996 57.2148 88.5024 57.0084C88.3738 56.8769 88.3109 56.6762 88.3109 56.4012V53.7092H87.6979Z" fill="white"/>
<path d="M91.8111 52.3166H90.6503V51.2607H91.8111V52.3166ZM90.6503 52.8401H91.8111V57.2161H90.6503V52.8401Z" fill="white"/>
<path d="M96.2011 53.1099C96.4883 53.3462 96.6319 53.738 96.6319 54.2884V57.2345H95.4591V54.5725C95.4591 54.3422 95.4296 54.1657 95.3667 54.0431C95.256 53.8188 95.0433 53.7051 94.7296 53.7051C94.3438 53.7051 94.0803 53.8696 93.9367 54.1987C93.8618 54.3721 93.826 54.5935 93.826 54.8656V57.2345H92.6837V52.8676H93.7902V53.5047C93.9367 53.2804 94.0745 53.1189 94.206 53.0201C94.4395 52.8437 94.7383 52.7539 95.0975 52.7539C95.5461 52.7539 95.914 52.8736 96.2011 53.1099Z" fill="white"/>
<path d="M99.6098 52.8556C99.8883 52.9693 100.113 53.1817 100.283 53.4897V52.8586H101.399V57.0073C101.399 57.5724 101.303 57.9973 101.115 58.2845C100.788 58.7781 100.163 59.0232 99.2361 59.0232C98.6768 59.0232 98.2224 58.9125 97.8661 58.6945C97.5103 58.4759 97.3188 58.1467 97.2802 57.7102H98.524C98.5574 57.8446 98.6082 57.9403 98.6797 58.0002C98.8025 58.1051 99.0089 58.1559 99.3019 58.1559C99.7147 58.1559 99.9898 58.0181 100.128 57.7431C100.217 57.5666 100.265 57.2707 100.265 56.8516V56.5707C100.155 56.7593 100.038 56.8995 99.912 56.9923C99.6848 57.1658 99.3889 57.2524 99.0268 57.2524C98.4646 57.2524 98.016 57.0551 97.6809 56.6602C97.3459 56.2657 97.1782 55.73 97.1782 55.0571C97.1782 54.408 97.3396 53.8606 97.663 53.418C97.986 52.9753 98.4433 52.7539 99.0389 52.7539C99.2569 52.7569 99.4484 52.7898 99.6098 52.8556ZM100.002 55.9935C100.184 55.79 100.277 55.4699 100.277 55.0272C100.277 54.6114 100.19 54.2973 100.014 54.079C99.8404 53.8636 99.6069 53.753 99.314 53.753C98.9132 53.753 98.6381 53.9414 98.4854 54.3183C98.4046 54.5187 98.366 54.7669 98.366 55.0601C98.366 55.3143 98.4075 55.5415 98.4946 55.7392C98.6497 56.1071 98.9253 56.2923 99.3261 56.2923C99.592 56.2952 99.8163 56.1965 100.002 55.9935Z" fill="white"/>
<path d="M104.342 57.232V51.3154H105.572V53.5707H107.872V51.3154H109.101V57.232H107.872V54.5907H105.572V57.232H104.342Z" fill="white"/>
<path d="M112.796 52.9384C113.101 53.076 113.352 53.2914 113.553 53.5845C113.732 53.8447 113.849 54.1468 113.903 54.4879C113.933 54.6882 113.948 54.9784 113.942 55.3551H110.756C110.774 55.7951 110.927 56.103 111.214 56.2795C111.387 56.3902 111.6 56.4438 111.845 56.4438C112.105 56.4438 112.317 56.3781 112.479 56.2437C112.569 56.1717 112.647 56.0701 112.715 55.9415H113.882C113.852 56.2016 113.708 56.4651 113.457 56.731C113.065 57.1559 112.518 57.3682 111.812 57.3682C111.229 57.3682 110.717 57.1888 110.272 56.8301C109.826 56.4709 109.604 55.8879 109.604 55.0771C109.604 54.3203 109.805 53.7371 110.206 53.3333C110.607 52.9295 111.13 52.7261 111.77 52.7261C112.147 52.7351 112.491 52.8039 112.796 52.9384ZM111.085 53.9285C110.924 54.096 110.822 54.3203 110.78 54.6045H112.751C112.73 54.2994 112.629 54.0691 112.446 53.9135C112.264 53.755 112.037 53.6772 111.767 53.6772C111.474 53.6772 111.247 53.761 111.085 53.9285Z" fill="white"/>
<path d="M116.699 52.7569C116.714 52.7569 116.747 52.7599 116.798 52.7629V53.9354C116.726 53.9264 116.66 53.9234 116.606 53.9204C116.549 53.9175 116.505 53.9175 116.469 53.9175C116.008 53.9175 115.7 54.067 115.541 54.3661C115.452 54.5336 115.41 54.7939 115.41 55.1438V57.2345H114.258V52.8586H115.35V53.6213C115.526 53.3282 115.679 53.1308 115.811 53.0231C116.026 52.8437 116.304 52.7539 116.645 52.7539C116.666 52.7539 116.684 52.7539 116.699 52.7569Z" fill="white"/>
<path d="M120.078 52.9384C120.383 53.076 120.634 53.2914 120.835 53.5845C121.014 53.8447 121.13 54.1468 121.184 54.4879C121.214 54.6882 121.229 54.9784 121.223 55.3551H118.038C118.056 55.7951 118.208 56.103 118.495 56.2795C118.669 56.3902 118.881 56.4438 119.127 56.4438C119.387 56.4438 119.599 56.3781 119.76 56.2437C119.85 56.1717 119.928 56.0701 119.997 55.9415H121.163C121.133 56.2016 120.99 56.4651 120.739 56.731C120.347 57.1559 119.8 57.3682 119.094 57.3682C118.51 57.3682 117.999 57.1888 117.553 56.8301C117.107 56.4709 116.886 55.8879 116.886 55.0771C116.886 54.3203 117.086 53.7371 117.487 53.3333C117.888 52.9295 118.412 52.7261 119.052 52.7261C119.429 52.7351 119.772 52.8039 120.078 52.9384ZM118.367 53.9285C118.205 54.096 118.104 54.3203 118.062 54.6045H120.033C120.012 54.2994 119.91 54.0691 119.727 53.9135C119.545 53.755 119.318 53.6772 119.049 53.6772C118.755 53.6772 118.528 53.761 118.367 53.9285Z" fill="white"/>
<path d="M65.051 21.4976H69.777V39.9677H65.051V21.4976Z" fill="white"/>
<path d="M71.731 21.4976H86.0107V25.2723H76.4571V28.6642H85.9866V32.3643H76.4571V36.1899H86.0615V39.9677H71.731V21.4976Z" fill="white"/>
<path d="M87.8362 21.4976H92.5889V35.9596H101.272V39.9677H87.8362V21.4976Z" fill="white"/>
<path d="M103.044 25.2484H97.752V21.4976H113.085V25.2484H107.769V39.9677H103.044V25.2484Z" fill="white"/>
<path d="M117.827 33.8439C117.878 35.9496 119.059 37.0294 121.32 37.0294C123.298 37.0294 124.351 36.3354 124.351 35.2048C124.351 34.5886 124.069 34.125 123.633 33.8947C122.529 33.3294 120.423 32.9704 117.725 31.8906C115.054 30.8378 113.666 29.064 113.666 26.7788C113.666 23.3121 116.415 21 121.039 21C125.535 21 128.281 23.4138 128.281 27.0869H123.839C123.633 25.367 122.631 24.5714 120.731 24.5714C119.14 24.5714 118.162 25.3162 118.162 26.2404C118.162 27.6283 119.6 27.9095 122.502 28.8607C124.634 29.5546 126.175 30.0421 127.075 30.76C128.281 31.7351 128.9 33.0722 128.9 34.6634C128.9 38.2587 126.049 40.4931 120.86 40.4931C116.056 40.4931 113.565 38.3096 113.283 33.8409H117.827V33.8439Z" fill="white"/>
<path d="M128.048 21.8381H127.432V21.4702H129.085V21.8381H128.472V23.546H128.048V21.8381Z" fill="white"/>
<path d="M129.361 21.4702H129.995L130.408 23.0495L130.815 21.4702H131.452V23.546H131.048V21.871L130.626 23.546H130.19L129.762 21.871V23.546H129.361V21.4702Z" fill="white"/>
</svg>
