<svg width="196" height="81" viewBox="0 0 196 81" fill="none" xmlns="http://www.w3.org/2000/svg">
<path d="M77.3362 32.6943C77.3646 32.2987 77.3062 31.9016 77.1652 31.5311C77.0242 31.1606 76.804 30.8257 76.5201 30.5501L76.5643 30.4841C76.9272 30.5989 77.2589 30.7962 77.5336 31.0608C77.8083 31.3253 78.0187 31.6499 78.1483 32.0093C78.6984 30.1083 80.8099 29.4228 82.4818 29.6457V29.734C81.2501 29.9752 80.3482 30.8391 80.3482 32.9615V44.2573C80.3482 44.2573 80.8762 44.7435 81.0302 44.854C81.36 45.1637 81.5582 45.318 81.888 45.318C82.1267 45.3043 82.3562 45.2204 82.548 45.0769C82.5822 45.0445 82.6189 45.0149 82.6579 44.9886L82.7679 45.1434L79.7986 47.5553L77.3352 45.2119L77.3362 32.6943Z" fill="white"/>
<path d="M66.7756 45.1387L66.6657 44.9838C66.5541 45.0946 66.421 45.1812 66.2748 45.2382C66.1285 45.2952 65.9722 45.3214 65.8155 45.3152C65.6587 45.309 65.5049 45.2705 65.3636 45.2022C65.2223 45.1338 65.0964 45.037 64.9938 44.9178C64.5321 44.542 64.2018 44.2545 64.2018 44.2545V37.1154L62.3298 34.7281L58.7883 37.14V33.0726C58.7883 30.9945 59.5803 30.0442 60.922 29.7789V29.6684C58.4802 29.4031 56.9408 30.7297 56.5885 32.0321C56.4707 31.666 56.2643 31.3349 55.9879 31.0687C55.7114 30.8025 55.3735 30.6094 55.0045 30.5068L54.9603 30.5729C55.2445 30.8437 55.4651 31.1747 55.6062 31.5418C55.7474 31.9088 55.8055 32.3029 55.7763 32.6953V45.2511L58.2397 47.6147L60.4396 45.6693L58.7677 44.2101V37.4684L59.9557 36.6484L61.1653 38.3724V45.2472L63.8053 47.6109L66.7756 45.1387Z" fill="white"/>
<path d="M103.862 32.053L101.773 34.1088L99.6831 32.053L101.773 29.9971L103.862 32.053ZM94.4913 48.3886C94.1589 47.9165 93.7111 47.5383 93.191 47.2905C92.671 47.0427 92.0962 46.9337 91.5221 46.9738C90.8368 46.9427 90.1673 47.1859 89.6601 47.65C89.1529 48.1141 88.8495 48.7613 88.8163 49.4498C88.8163 51.2626 90.4219 52.7213 93.5894 52.7213C99.0446 52.7213 100.54 48.6761 103.686 48.6761V37.1362L101.772 34.7046L99.3965 36.6939L100.692 38.3518V47.6361C100.692 50.4435 97.393 51.881 95.3693 51.881C93.2136 51.881 91.608 50.7315 91.608 49.3389C91.609 49.1477 91.6483 48.9587 91.7235 48.7832C91.7988 48.6077 91.9084 48.4492 92.046 48.3171C92.1835 48.1851 92.3461 48.0822 92.524 48.0147C92.7019 47.9472 92.8915 47.9163 93.0816 47.924C93.3227 47.9155 93.5628 47.9583 93.7862 48.0498C94.0096 48.1413 94.2111 48.2792 94.3776 48.4547L94.4913 48.3886Z" fill="white"/>
<path d="M46.9352 45.162L48.1889 44.0347C48.1448 43.902 47.9691 43.3936 47.7709 42.7525C47.3528 41.2272 46.6933 38.906 46.6933 38.906L45.7035 37.9997V39.0358C45.7035 41.2465 44.1195 42.3738 41.9643 43.2807C44.9777 43.4577 46.6275 44.8725 46.9357 45.162H46.9352ZM46.4076 29.2682C45.8816 30.2742 45.6383 31.4052 45.704 32.5397V36.1869L50.4315 29.2011C51.0855 29.6946 51.8793 29.965 52.6971 29.9729C53.5086 30.0133 54.3112 29.7883 54.9848 29.3319L55.0506 29.3541C54.7866 30.1939 53.4886 32.3163 51.3992 32.3163C50.5796 32.2959 49.7811 32.0514 49.0894 31.6092L46.8238 34.9689L49.3976 37.0248C49.3976 37.0248 50.4973 40.7164 50.9374 42.1534C51.4213 43.7452 51.8835 43.944 52.8094 44.3641C53.1834 44.5411 53.5573 44.6955 54.0853 44.9386C54.404 45.1059 54.7598 45.1889 55.1192 45.1798C55.3462 45.1749 55.5672 45.106 55.7571 44.9811L55.867 45.1137L53.2933 47.5893C53.2933 47.5893 51.6877 46.8599 50.5438 46.3515C49.5641 45.9762 48.7623 45.2415 48.3003 44.2956C47.1785 45.2459 45.7928 46.5281 44.671 47.5671C43.1524 46.5609 41.3645 46.0443 39.546 46.0862C35.6969 46.0862 32.2874 47.9192 32.2874 50.0653C32.2874 51.4357 33.2993 52.1651 34.5089 52.1651L34.4868 52.3638C34.1632 52.3897 33.8378 52.3466 33.532 52.2373C33.2261 52.128 32.9467 51.9549 32.7121 51.7295C32.4774 51.5041 32.2928 51.2315 32.1703 50.9294C32.0478 50.6273 31.9902 50.3026 32.0013 49.9765C32.0013 46.3293 36.6425 43.588 40.7119 43.3227C41.13 42.7699 41.7238 42.0849 41.7238 40.1839V34.8391C41.6881 34.3494 41.8287 33.8631 42.1198 33.4687C41.9899 33.9359 41.9378 34.4214 41.9657 34.9057V40.4101C42.0252 41.4789 41.6614 42.5278 40.9539 43.328C41.1079 43.328 41.2419 43.3058 41.394 43.3058H41.634C42.536 42.2889 42.6238 41.1616 42.6238 40.1004V34.7277C42.6459 32.9371 43.2176 32.2522 44.3393 31.1687C44.6033 30.9034 44.8894 30.6381 45.0872 30.4394L45.043 30.395C43.6793 31.4119 42.5576 32.228 40.7979 32.228C39.39 32.228 38.1804 31.6092 36.8618 31.6092C36.2379 31.5985 35.6302 31.8098 35.1463 32.2059L35.1022 32.1837C35.6738 31.2329 37.2142 29 39.5014 29C41.2169 29 42.0089 29.7293 43.7028 29.7293C44.5956 29.7665 45.4846 29.5923 46.2982 29.2209L46.4076 29.2682Z" fill="white"/>
<path d="M85.6487 42.2214L88.2887 40.5413L85.6487 37.0706V42.2214ZM82.6353 37.9992L87.6504 34.6833L91.0156 39.1043L85.6487 42.4862V43.8789C85.6487 43.8789 87.8265 44.9401 88.5964 45.3159C88.9588 45.524 89.3671 45.6379 89.7844 45.6472C90.2322 45.6283 90.6721 45.5231 91.0804 45.3376C91.3444 45.2049 91.5864 45.0964 91.5864 45.0964V45.3858L87.1872 47.6187L82.6339 45.2753L82.6353 37.9992Z" fill="white"/>
<path d="M149.394 42.2214L152.034 40.5413L149.394 37.0706V42.2214ZM146.359 37.9992L151.396 34.6833L154.761 39.1043L149.394 42.4862V43.8789C149.394 43.8789 151.572 44.9401 152.342 45.3159C152.704 45.524 153.112 45.638 153.53 45.6472C153.977 45.6283 154.417 45.5231 154.826 45.3376C154.914 45.2932 155.244 45.1388 155.244 45.1388L155.332 45.3597L150.932 47.5922L146.379 45.2493V37.9992H146.359Z" fill="white"/>
<path d="M94.6013 42.2214L97.2413 40.5413L94.6013 37.0706V42.2214ZM91.5658 37.9992L96.6029 34.6833L99.9682 39.1043L94.6008 42.4862V43.8789C94.6008 43.8789 96.7786 44.9401 97.5485 45.3159C97.9191 45.4944 98.3256 45.5852 98.7365 45.5812C99.1823 45.5579 99.6177 45.4372 100.012 45.2276C100.252 45.0949 100.716 44.874 100.716 44.874V45.1393L96.1186 47.6153L91.5653 45.4046L91.5658 37.9992Z" fill="white"/>
<path d="M66.6436 37.9987L71.5487 34.7051L74.8919 37.8217V44.2103C74.8919 44.2103 75.3978 44.6082 75.8596 44.9821C76.0607 45.1983 76.3342 45.3321 76.6276 45.3578C76.9053 45.32 77.1615 45.1873 77.3534 44.9821L77.4854 45.1591L74.5377 47.6129L71.9668 45.3173L69.7012 47.6163L66.6436 45.2271V37.9987ZM69.657 44.0998C69.657 44.0998 70.581 44.807 70.7567 44.9618C70.9333 45.1373 71.1686 45.2405 71.4167 45.2512C71.5799 45.2479 71.7364 45.185 71.8569 45.0742V39.3031L69.6354 37.1367V44.0998H69.657Z" fill="white"/>
<path d="M138.176 37.1374L136.285 34.7057L132.589 37.1374L130.697 34.7057L128.387 36.4741L129.597 37.9994V45.2297L132.412 47.5933L134.37 45.7603L132.61 44.1906V37.4027L134.018 36.4741L135.184 37.955V45.1814L138 47.5451L139.958 45.7121L138.198 44.1424V37.3588L139.672 36.408L140.859 37.9111V45.1395L143.675 47.5031L146.468 45.2263L146.381 45.0936L146.293 45.138C146.134 45.2544 145.939 45.3093 145.743 45.2929C145.344 45.2825 144.965 45.116 144.687 44.8288C144.467 44.6301 143.871 44.0995 143.871 44.0995V37.0491L141.981 34.6174L138.176 37.1374Z" fill="white"/>
<path d="M164 34.8155L160.657 39.3469L163.384 41.3141V44.6299L159.425 47.6361C158.667 47.0947 157.759 46.8077 156.829 46.816C155.985 46.8347 155.169 47.1218 154.497 47.6361L154.365 47.5256L157.885 42.7501L155.377 41.3575V37.6659L159.271 34.6819C159.964 35.1959 160.809 35.4606 161.671 35.4334C162.461 35.4444 163.231 35.1787 163.848 34.6819L164 34.8155ZM162.966 35.788L162.9 35.7436C162.636 36.0533 161.492 37.2467 160.063 37.2467C159.455 37.2619 158.857 37.0925 158.347 36.7604V39.5235L159.667 40.275L162.966 35.788ZM160.37 43.0824L158.743 41.9551L155.335 46.5531L155.4 46.6192C155.884 46.133 156.962 45.0718 158.458 45.0718C159.127 45.061 159.788 45.2287 160.372 45.558L160.37 43.0824Z" fill="white"/>
<path d="M122.999 36.4517L125.331 34.6834L127.223 37.115V44.1664C127.223 44.1664 127.619 44.5199 127.905 44.7852C128.171 45.0452 128.524 45.1952 128.895 45.2054C129.146 45.2053 129.391 45.1282 129.598 44.9845C129.62 45.0066 129.686 45.0949 129.686 45.0949L127.002 47.5488C126.606 47.1952 124.209 45.2059 124.209 45.2059V37.977L122.999 36.4517ZM125.308 29.9971L123.219 32.053L125.308 34.1088L127.398 32.053L125.308 29.9971Z" fill="white"/>
<path d="M117.06 44.9401C117.639 44.9437 118.216 44.8694 118.776 44.7192V32.9589C118.335 32.9367 117.786 32.8706 117.522 32.8484V39.237C117.522 42.3319 114.31 43.3927 113.409 43.8572C114.498 44.5602 115.765 44.9359 117.06 44.9401ZM113.277 43.7463C113.87 43.1935 114.398 42.221 114.398 40.6735V32.163C114.222 32.1186 113.87 32.0303 113.716 31.986V40.6976C113.782 41.687 113.476 42.6652 112.859 43.4385C112.969 43.5268 113.167 43.6594 113.277 43.7482V43.7463ZM123.989 29.3353C123.877 30.3804 123.369 31.342 122.57 32.021C121.772 32.6999 120.744 33.0442 119.7 32.9825C119.472 32.987 119.244 32.9796 119.018 32.9604V44.6531C120.034 44.3231 120.955 43.7475 121.699 42.9768C122.443 42.206 122.988 41.2636 123.285 40.2322L123.373 40.2543C123.259 42.2206 122.409 44.0706 120.993 45.4323C119.577 46.7939 117.7 47.566 115.741 47.5932C111.385 47.5932 108.152 44.2552 108.152 39.7015C108.129 38.2869 108.479 36.8913 109.167 35.6567C109.855 34.4221 110.855 33.3925 112.067 32.6724L112.133 32.7385C110.956 34.0777 110.327 35.8154 110.373 37.6018C110.344 38.6739 110.541 39.74 110.95 40.7304C111.36 41.7209 111.972 42.6133 112.749 43.3492C113.308 42.55 113.578 41.5832 113.517 40.6084V31.9642C113.12 31.873 112.714 31.8212 112.307 31.8094C111.542 31.7681 110.778 31.9064 110.076 32.2134C109.373 32.5203 108.751 32.9875 108.26 33.5778L108.194 33.5334C108.567 30.903 110.459 29.0242 113.913 29.0242C117.014 29.0242 118.62 30.1737 121.04 30.1737C122.074 30.2051 123.091 29.9038 123.943 29.3136L123.989 29.3353Z" fill="white"/>
</svg>
