<svg width="196" height="81" viewBox="0 0 196 81" fill="none" xmlns="http://www.w3.org/2000/svg">
<path d="M108.7 34.8251C107.283 34.7998 105.884 35.1415 104.646 35.8155C104.646 32.2927 104.646 29.101 104.759 28L97.2111 29.3209V29.9814L97.9994 30.0913C99.0121 30.3113 99.3515 30.8612 99.5747 32.1827C99.8016 34.8251 99.6878 48.9164 99.5747 51.2283C101.643 51.7083 103.758 51.9668 105.883 51.9994C111.853 51.9994 115.457 48.366 115.457 42.6412C115.457 38.128 112.529 34.8245 108.699 34.8245L108.7 34.8251ZM106.109 50.7885C105.655 50.8112 105.201 50.7744 104.757 50.6791C104.644 49.1382 104.532 42.6418 104.644 36.9177C105.183 36.7126 105.754 36.6008 106.332 36.5871C108.812 36.5871 110.163 39.4495 110.163 42.9711C110.163 47.3762 108.476 50.7885 106.107 50.7885H106.109ZM68.8248 28.4405H49V29.4309L50.1252 29.5409C51.5886 29.7608 52.1524 30.6406 52.3756 32.7332C52.6581 37.573 52.6581 42.4246 52.3756 47.2644C52.1506 49.3563 51.588 50.3479 50.1252 50.4567L49 50.6779V51.5583H61.7285V50.6779L60.377 50.4567C58.913 50.3473 58.3498 49.357 58.1266 47.2644C58.0135 45.8329 57.901 43.5204 57.901 40.6592L60.6046 40.7692C62.2924 40.7692 63.0819 42.0901 63.4176 43.9615H64.4315V36.1472H63.4176C63.0788 38.0186 62.2924 39.3395 60.6046 39.3395L57.9016 39.4501C57.9016 35.7067 58.0141 32.1839 58.1273 30.0926H62.0692C65.1116 30.0926 66.6882 31.9633 67.814 35.2668L68.9392 34.9363L68.8248 28.4405Z" fill="white"/>
<path d="M75.246 34.6059C80.8782 34.6059 83.6944 38.3493 83.6944 43.303C83.6944 48.0368 80.54 52.0013 74.9078 52.0013C69.2755 52.0013 66.46 48.2573 66.46 43.303C66.46 38.5692 69.6137 34.6059 75.246 34.6059ZM74.9078 35.7056C72.4292 35.7056 71.7535 39.0085 71.7535 43.3018C71.7535 47.4851 72.8787 50.8979 75.1334 50.8979C77.722 50.8979 78.3997 47.595 78.3997 43.3018C78.3997 39.1197 77.2745 35.7069 74.9078 35.7069V35.7056ZM116.922 43.413C116.922 38.8992 119.851 34.6053 125.596 34.6053C130.325 34.6053 132.579 38.0188 132.579 42.532H122.103C121.99 46.6053 124.017 49.5782 128.073 49.5782C129.457 49.6359 130.816 49.2064 131.904 48.3679L132.353 48.9178C131.544 49.9034 130.513 50.6941 129.342 51.2287C128.17 51.7634 126.888 52.0277 125.596 52.0013C120.527 52.0013 116.922 48.4779 116.922 43.4136V43.413ZM122.103 41.3216L127.397 41.2111C127.397 39.0116 127.059 35.7069 125.147 35.7069C123.235 35.7069 122.215 38.7892 122.103 41.3216V41.3216ZM145.982 35.4869C144.33 34.8709 142.572 34.5717 140.804 34.6059C136.637 34.6059 134.045 37.0272 134.045 39.8901C134.045 42.7531 135.958 43.9635 138.665 44.8445C141.478 45.8342 142.269 46.6053 142.269 47.9268C142.268 48.2779 142.192 48.625 142.047 48.9462C141.902 49.2674 141.691 49.5559 141.426 49.7936C141.162 50.0313 140.85 50.2131 140.51 50.3275C140.171 50.4419 139.811 50.4866 139.452 50.4586C137.313 50.4586 135.735 49.2483 134.497 45.9448L133.708 46.166L133.821 51.0097C135.738 51.6709 137.757 52.0061 139.791 52.0007C144.184 52.0007 147.001 49.7976 147.001 46.3859C147.001 44.0734 145.761 42.7531 142.832 41.6516C139.677 40.4412 138.552 39.6708 138.552 38.2387C138.533 37.9249 138.581 37.6107 138.691 37.3156C138.802 37.0205 138.974 36.7509 139.196 36.5236C139.418 36.2962 139.686 36.1161 139.982 35.9944C140.279 35.8727 140.598 35.8121 140.92 35.8162C142.946 35.8162 144.295 37.0272 145.313 40.0001L146.1 39.7802L145.985 35.4869H145.982ZM98.3345 35.0464C96.4204 33.9467 93.0404 34.4965 91.2388 38.4599L91.3526 34.6065L83.8069 36.0374V36.6978L84.5951 36.8078C85.6097 36.9184 86.0591 37.4683 86.1723 38.8998C86.3412 42.0903 86.3412 45.2873 86.1723 48.4779C86.0591 49.7976 85.6097 50.458 84.5951 50.5686L83.8069 50.6792V51.5596H94.2819V50.6798L92.9304 50.5692C91.8052 50.4586 91.4664 49.7982 91.3532 48.4785C91.1429 45.5096 91.1056 42.5314 91.2413 39.5584C91.8039 38.7873 94.2825 38.1275 96.5348 39.5584L98.337 35.044L98.3345 35.0464Z" fill="white"/>
</svg>
