<svg width="710" height="206" viewBox="0 0 710 206" fill="none" xmlns="http://www.w3.org/2000/svg">
<g clip-path="url(#clip0_109_2)">
<path d="M114.12 100.77C110.62 95.77 106.02 91.67 100.82 88.57C93.8201 84.47 83.9201 84.77 83.9201 84.77C81.0201 91.37 73.4201 94.37 66.8201 91.47C66.7201 91.47 66.7201 91.37 66.6201 91.37C66.5201 91.37 66.4201 91.27 66.3201 91.27C58.7201 101.27 59.4201 109.67 59.5201 110.17C59.9201 123.07 72.4201 149.57 122.32 149.67C122.32 148.87 126.42 116.97 114.12 100.77Z" fill="#0086F8"/>
<path d="M73.7201 33.3701C59.8201 19.8701 34.2201 14.7701 1.32007 29.47C1.42007 29.87 11.2201 71.5701 55.3201 78.1701H55.4201C56.4201 78.2701 57.5201 78.3701 58.7201 78.4701C59.2201 71.6701 64.9201 66.3701 71.8201 66.3701C73.3201 66.3701 74.7201 66.6701 76.1201 67.0701C88.9201 47.9701 75.3201 34.7701 73.7201 33.3701Z" fill="#FF8300"/>
<path d="M66.3201 91.4699C61.7201 89.3699 58.8201 84.7699 58.7201 79.6699C58.7201 79.2699 58.7201 78.9699 58.8201 78.5699C56.6201 78.2699 54.3201 78.1699 52.0201 78.1699C40.5201 78.3699 29.3201 82.1699 20.0201 89.0699C1.42006 103.57 -0.179932 127.27 -0.179932 127.27C0.820068 127.37 33.6201 131.67 53.5201 112.07C55.6201 109.97 57.4201 107.67 58.9201 105.27C58.9201 105.27 59.4201 104.47 60.3201 102.97C61.6201 98.7699 63.6201 94.8699 66.3201 91.4699Z" fill="#51C21A"/>
<path d="M281.82 51.0701C272.22 51.0701 264.02 55.1701 259.02 61.6701V58.4701C259.02 54.3701 255.72 51.0701 251.62 51.0701H251.52C247.42 51.0701 244.12 54.3701 244.02 58.4701V142.27C244.02 146.47 247.42 149.77 251.62 149.87C255.82 149.87 259.12 146.47 259.22 142.27V112.77C265.02 119.17 273.32 122.77 282.02 122.57C298.92 122.57 315.42 109.97 315.42 86.6701C315.52 62.9701 297.92 51.0701 281.82 51.0701ZM280.12 108.87C269.72 108.87 259.22 101.37 259.22 86.4701C259.22 71.8701 269.62 64.5701 280.02 64.5701C290.42 64.5701 300.52 71.6701 300.52 86.5701C300.52 101.47 290.52 108.87 280.12 108.87Z" fill="#FAF9F9"/>
<path d="M195.02 122.67C204.72 122.67 212.82 118.67 217.82 112.07V115.17C217.82 119.27 221.12 122.57 225.22 122.57H225.32C229.42 122.57 232.72 119.27 232.82 115.17V31.3699C232.72 27.2699 229.42 23.8699 225.22 23.8699C221.02 23.8699 217.62 27.2699 217.62 31.3699V60.7699C211.72 54.4699 203.42 50.8699 194.72 50.9699C177.82 50.9699 161.32 63.4699 161.32 86.8699C161.32 110.77 178.92 122.67 195.02 122.67ZM196.72 64.9699C207.12 64.9699 217.62 72.4699 217.62 87.3699C217.62 101.97 207.22 109.27 196.92 109.27C186.62 109.27 176.42 102.17 176.42 87.2699C176.42 72.4699 186.32 64.9699 196.72 64.9699Z" fill="#FAF9F9"/>
<path d="M144.92 20.6701C139.12 20.5701 134.22 25.1701 134.12 31.0701V31.47C134.02 37.27 138.62 42.17 144.52 42.27H145.02C150.92 42.47 155.72 37.77 155.92 31.97V31.8701V31.47C155.92 25.57 151.22 20.7701 145.42 20.6701H144.92Z" fill="#FAF9F9"/>
<path d="M144.92 51.0701C140.72 51.0701 137.42 54.4701 137.32 58.6701V115.37C137.52 119.47 140.82 122.67 144.92 122.67C149.02 122.67 152.32 119.47 152.52 115.37V115.07V58.5701C152.42 54.4701 149.02 51.1701 144.92 51.0701Z" fill="#FAF9F9"/>
<path d="M661.12 123.57C646.72 123.67 641.82 121.67 635.62 116.77C629.42 111.87 626.52 104.27 626.02 94.37H645.72C646.62 104.47 652.22 108.37 661.62 108.37C668.92 108.37 675.52 106.57 674.72 99.27C674.22 91.57 662.62 92.87 647.52 86.47C636.92 83.37 626.82 74.97 627.72 61.87C629.02 44.07 645.02 37.47 660.02 37.47C677.92 37.47 691.62 46.27 691.82 64.57L672.52 64.27C672.42 53.47 660.42 53.37 659.02 53.37C651.22 53.07 647.42 57.37 647.52 60.67C647.62 67.07 655.52 68.77 663.22 71.27C677.72 75.87 694.72 78.57 694.72 97.97C694.52 105.67 692.42 111.37 686.02 116.57C681.02 120.57 672.52 123.47 661.12 123.57Z" fill="#C7002B"/>
<path d="M411.62 40.97H432.62V122.27H411.62V40.97Z" fill="#C7002B"/>
<path d="M441.42 40.97H504.12V57.57H461.82V72.77H504.12V88.87H461.82V105.57H504.12V122.27H441.42V40.97Z" fill="#C7002B"/>
<path d="M512.22 40.97H532.92V104.77H571.12V122.27H512.22V40.97Z" fill="#C7002B"/>
<path d="M555.92 40.97H623.42V57.57H600.02V122.37H579.42V57.57H555.92V40.97Z" fill="#C7002B"/>
<path d="M689.82 50.3699V42.2699H687.12V40.6699H694.42V42.2699H691.72V50.3699H689.82Z" fill="#FAF9F9"/>
<path d="M695.62 50.3699V40.6699H698.42L700.12 47.2699L701.82 40.6699H704.62V50.3699H702.92V42.7699L701.12 50.3699H699.32L697.52 42.7699V50.3699H695.62Z" fill="#FAF9F9"/>
<path d="M362.82 1.96997V164.07" stroke="#EEEEEE" stroke-width="4" stroke-miterlimit="10" stroke-linecap="round" stroke-linejoin="round"/>
<path d="M407.22 146.97H709.32" stroke="#ECEBEB" stroke-miterlimit="10" stroke-linecap="round" stroke-linejoin="round"/>
<path d="M468.22 169.87V174.67H460.12V196.97H454.42V174.67H446.32V169.87H468.22Z" fill="#FAF9F9"/>
<path d="M481.42 177.37C482.82 177.97 484.02 179.07 484.92 180.37C485.72 181.57 486.32 183.07 486.52 184.47C486.72 185.77 486.72 187.07 486.72 188.47H472.12C472.02 190.17 472.82 191.77 474.22 192.67C475.12 193.17 476.12 193.47 477.12 193.47C478.12 193.47 479.22 193.17 480.02 192.57C480.52 192.17 480.82 191.67 481.12 191.17H486.42C486.22 192.57 485.52 193.87 484.52 194.77C482.52 196.77 479.82 197.87 477.02 197.67C474.42 197.67 471.92 196.87 470.02 195.17C468.02 193.57 466.92 190.87 466.92 187.17C466.92 183.67 467.82 181.07 469.72 179.17C471.62 177.27 474.22 176.27 476.92 176.37C478.32 176.37 479.92 176.67 481.42 177.37ZM473.52 181.87C472.72 182.77 472.22 183.77 472.12 184.97H481.12C481.12 183.77 480.62 182.67 479.72 181.77C478.82 181.07 477.72 180.67 476.62 180.67C475.52 180.67 474.42 181.07 473.52 181.87Z" fill="#FAF9F9"/>
<path d="M493.32 190.57C493.32 191.27 493.62 191.97 494.02 192.57C494.72 193.27 495.92 193.57 497.62 193.57C498.42 193.57 499.32 193.47 500.12 193.07C500.92 192.77 501.22 191.77 500.92 191.07C500.82 190.77 500.62 190.57 500.32 190.37C498.52 189.67 496.72 189.17 494.82 188.77C493.12 188.47 491.42 187.77 490.02 186.67C489.02 185.77 488.52 184.37 488.62 183.07C488.62 181.27 489.42 179.47 490.82 178.27C492.52 176.87 494.72 176.17 496.92 176.27C499.02 176.17 501.22 176.67 503.02 177.77C504.62 178.77 505.52 180.47 505.72 182.97H500.52C500.52 182.37 500.32 181.87 499.92 181.37C499.12 180.57 498.02 180.17 496.92 180.27C496.12 180.17 495.22 180.37 494.52 180.77C494.12 181.07 493.82 181.47 493.82 182.07C493.82 182.57 494.12 183.17 494.62 183.37C496.42 183.97 498.22 184.47 500.12 184.87C501.82 185.17 503.42 185.97 504.82 187.07C505.82 188.07 506.42 189.47 506.32 190.87C506.32 192.77 505.52 194.57 504.12 195.77C502.62 197.07 500.32 197.67 497.22 197.67C494.02 197.67 491.72 196.97 490.22 195.67C488.72 194.37 487.92 192.57 487.92 190.57H493.32Z" fill="#FAF9F9"/>
<path d="M508.12 180.87V177.07H510.92V171.47H516.12V177.07H519.42V180.77H516.12V191.37C516.02 191.87 516.12 192.47 516.42 192.87C517.02 193.17 517.72 193.27 518.32 193.17C518.52 193.17 518.62 193.17 518.82 193.17H519.32V197.07L516.82 197.17C514.32 197.27 512.62 196.87 511.72 195.87C511.12 195.07 510.72 194.07 510.82 193.07V180.77L508.12 180.87Z" fill="#FAF9F9"/>
<path d="M528.12 174.57H522.82V169.77H528.12V174.57ZM522.82 176.97H528.12V196.97H522.82V176.97Z" fill="#FAF9F9"/>
<path d="M549.32 178.07C550.62 179.17 551.32 180.97 551.32 183.47V196.97H545.92V184.77C545.92 183.97 545.82 183.07 545.52 182.37C544.92 181.27 543.82 180.67 542.62 180.87C541.02 180.77 539.62 181.67 539.02 183.17C538.62 184.17 538.52 185.17 538.52 186.17V196.97H533.32V176.97H538.42V179.87C538.92 179.07 539.52 178.27 540.32 177.67C541.52 176.87 542.92 176.37 544.42 176.47C546.12 176.37 547.92 176.97 549.32 178.07Z" fill="#FAF9F9"/>
<path d="M566.02 176.87C567.32 177.47 568.42 178.47 569.12 179.77V176.87H574.22V195.87C574.32 197.87 573.92 199.97 572.92 201.67C571.42 203.97 568.52 205.07 564.32 205.07C562.12 205.17 559.92 204.67 558.02 203.57C556.42 202.57 555.42 200.97 555.32 199.07H561.02C561.12 199.57 561.32 200.07 561.72 200.37C562.52 200.97 563.52 201.17 564.52 201.07C566.42 201.07 567.72 200.47 568.32 199.17C568.82 197.87 569.02 196.47 568.92 195.07V193.77C568.52 194.47 567.92 195.17 567.32 195.67C566.12 196.47 564.72 196.97 563.22 196.87C560.82 196.97 558.62 195.97 557.02 194.17C555.42 192.07 554.62 189.47 554.72 186.87C554.62 184.17 555.42 181.57 556.92 179.37C558.32 177.37 560.72 176.17 563.22 176.37C564.32 176.47 565.22 176.57 566.02 176.87ZM567.82 191.27C568.72 189.97 569.22 188.47 569.12 186.87C569.22 185.37 568.82 183.77 567.92 182.57C567.12 181.57 565.92 181.07 564.72 181.07C563.02 180.97 561.42 182.07 560.92 183.67C560.52 184.77 560.32 185.87 560.42 187.07C560.42 188.17 560.62 189.17 561.02 190.17C561.62 191.77 563.12 192.77 564.82 192.67C565.92 192.67 567.02 192.17 567.82 191.27Z" fill="#FAF9F9"/>
<path d="M590.02 196.97V169.87H595.62V180.17H606.12V169.87H611.72V196.97H606.12V184.87H595.62V196.97H590.02Z" fill="#FAF9F9"/>
<path d="M629.82 177.37C631.22 177.97 632.42 179.07 633.32 180.37C634.12 181.57 634.72 183.07 634.92 184.47C635.12 185.77 635.12 187.07 635.12 188.47H620.52C620.42 190.17 621.22 191.77 622.62 192.67C623.52 193.17 624.52 193.47 625.52 193.47C626.52 193.47 627.62 193.17 628.42 192.57C628.92 192.17 629.22 191.67 629.52 191.17H634.82C634.62 192.57 633.92 193.87 632.92 194.77C630.92 196.77 628.22 197.87 625.42 197.67C622.82 197.67 620.32 196.87 618.42 195.17C616.42 193.57 615.32 190.87 615.32 187.17C615.32 183.67 616.22 181.07 618.12 179.17C620.02 177.27 622.62 176.27 625.32 176.37C626.72 176.37 628.32 176.67 629.82 177.37ZM622.02 181.87C621.22 182.77 620.72 183.77 620.62 184.97H629.62C629.62 183.77 629.12 182.67 628.22 181.77C627.32 181.07 626.22 180.67 625.12 180.67C623.92 180.67 622.82 181.07 622.02 181.87Z" fill="#FAF9F9"/>
<path d="M648.82 176.47C648.92 176.47 649.02 176.47 649.32 176.47V181.87C649.02 181.87 648.72 181.77 648.42 181.77C648.12 181.77 647.92 181.77 647.82 181.77C645.72 181.77 644.32 182.47 643.62 183.87C643.12 184.97 642.92 186.17 643.02 187.47V197.07H637.72V177.07H642.72V180.57C643.32 179.57 644.02 178.67 644.82 177.87C645.92 176.97 647.22 176.57 648.62 176.67C648.62 176.47 648.72 176.47 648.82 176.47Z" fill="#FAF9F9"/>
<path d="M665.32 177.37C666.72 177.97 667.92 179.07 668.82 180.37C669.62 181.57 670.22 183.07 670.42 184.47C670.62 185.77 670.62 187.07 670.62 188.47H656.02C655.92 190.17 656.72 191.77 658.12 192.67C659.02 193.17 660.02 193.47 661.02 193.47C662.02 193.47 663.12 193.17 663.92 192.57C664.42 192.17 664.72 191.67 665.02 191.17H670.32C670.12 192.57 669.42 193.87 668.42 194.77C666.42 196.77 663.72 197.87 660.92 197.67C658.32 197.67 655.82 196.87 653.92 195.17C651.92 193.57 650.82 190.87 650.82 187.17C650.82 183.67 651.72 181.07 653.62 179.17C655.52 177.27 658.12 176.27 660.82 176.37C662.32 176.37 663.92 176.67 665.32 177.37ZM657.52 181.87C656.72 182.77 656.22 183.77 656.12 184.97H665.12C665.12 183.77 664.62 182.67 663.72 181.77C662.82 181.07 661.72 180.67 660.62 180.67C659.52 180.67 658.42 181.07 657.52 181.87Z" fill="#FAF9F9"/>
</g>
<defs>
<clipPath id="clip0_109_2">
<rect width="709.8" height="205.1" fill="white"/>
</clipPath>
</defs>
</svg>
